<svg width="261" height="261" viewBox="0 0 261 261" fill="none" xmlns="http://www.w3.org/2000/svg">
<g filter="url(#filter0_d_22_666)">
<rect x="40.724" y="36.8909" width="180" height="180" rx="32" fill="white"/>
<rect x="41.224" y="37.3909" width="179" height="179" rx="31.5" stroke="#D9D9D9"/>
</g>
<path d="M85.1666 81.9017H176.833V171.069H85.1666V81.9017Z" fill="url(#paint0_radial_22_666)"/>
<path d="M85.1666 81.9017H176.833V171.068H85.1666V81.9017ZM81 175.235H181V77.7351H81V175.235ZM151.75 124.735C153.875 124.735 154.625 124.735 154.833 124.652C154.833 124.36 154.916 124.152 154.916 123.943C154.916 121.693 153.833 117.527 149.5 117.527C145.5 117.527 143.792 121.027 143.375 124.735H151.75ZM143.292 130.443C143.375 136.068 146.042 139.86 152.375 139.86C154.833 139.86 156.958 139.527 159.167 138.569C159.458 138.444 159.667 138.485 159.667 138.86V144.069C159.667 144.485 159.542 144.694 159.25 144.902C157.042 145.985 154.292 146.485 150.875 146.485C139.875 146.485 135.75 138.36 135.75 129.319C135.75 119.485 140.834 111.444 149.792 111.444C158.875 111.444 162.042 119.069 162.042 125.277C162.042 127.277 161.917 128.902 161.709 129.694C161.625 130.027 161.5 130.152 161.167 130.236C160.334 130.361 157.875 130.527 154.209 130.527H143.292V130.443ZM120.959 126.193C119.792 121.568 116.958 111.485 115.917 106.61H115.833C114.958 111.485 112.667 119.735 110.958 126.193H120.959ZM109.25 132.944L105.958 145.402C105.875 145.735 105.75 145.86 105.333 145.86H99.2082C98.7916 145.86 98.7081 145.735 98.7916 145.235L110.625 103.86C110.833 103.11 110.958 102.527 111.041 100.444C111.041 100.152 111.166 100.027 111.375 100.027H120.125C120.416 100.027 120.541 100.11 120.625 100.444L133.875 145.319C133.958 145.652 133.875 145.86 133.541 145.86H126.667C126.333 145.86 126.125 145.735 126.041 145.444L122.625 132.944H109.25V132.944Z" fill="#D8A1FF"/>
<defs>
<filter id="filter0_d_22_666" x="0.723999" y="0.890869" width="260" height="260" filterUnits="userSpaceOnUse" color-interpolation-filters="sRGB">
<feFlood flood-opacity="0" result="BackgroundImageFix"/>
<feColorMatrix in="SourceAlpha" type="matrix" values="0 0 0 0 0 0 0 0 0 0 0 0 0 0 0 0 0 0 127 0" result="hardAlpha"/>
<feOffset dy="4"/>
<feGaussianBlur stdDeviation="20"/>
<feComposite in2="hardAlpha" operator="out"/>
<feColorMatrix type="matrix" values="0 0 0 0 0.0367917 0 0 0 0 0.0348958 0 0 0 0 0.0484375 0 0 0 0.1 0"/>
<feBlend mode="normal" in2="BackgroundImageFix" result="effect1_dropShadow_22_666"/>
<feBlend mode="normal" in="SourceGraphic" in2="effect1_dropShadow_22_666" result="shape"/>
</filter>
<radialGradient id="paint0_radial_22_666" cx="0" cy="0" r="1" gradientUnits="userSpaceOnUse" gradientTransform="translate(115.357 101.884) scale(69.6666 67.4501)">
<stop stop-color="#442F55" stop-opacity="0.98"/>
<stop offset="1" stop-color="#12002C"/>
</radialGradient>
</defs>
</svg>
