<svg width="261" height="260" viewBox="0 0 261 260" fill="none" xmlns="http://www.w3.org/2000/svg">
<g filter="url(#filter0_d_20_1678)">
<rect x="40.724" y="36" width="180" height="180" rx="32" fill="white"/>
<rect x="41.224" y="36.5" width="179" height="179" rx="31.5" stroke="#D9D9D9"/>
</g>
<path d="M81 76.636H181V174.553H81V76.636Z" fill="url(#paint0_linear_20_1678)"/>
<path d="M117.48 126.484H126.343L121.912 109.296L117.48 126.484ZM88.5656 84.303V166.934H173.561V84.303H88.5656ZM131.208 145.329L127.965 134.159H115.966L112.723 145.329H104.507L116.074 105.837V101.513H127.1L140.288 145.329H131.208V145.329ZM153.044 145.329H144.18V111.999H153.044V145.329ZM148.666 107.999C146.129 107.999 144.071 105.966 144.071 103.459C144.071 100.951 146.128 98.9186 148.666 98.9186C151.204 98.9186 153.26 100.951 153.26 103.459C153.26 105.966 151.204 107.999 148.666 107.999Z" fill="url(#paint1_linear_20_1678)"/>
<defs>
<filter id="filter0_d_20_1678" x="0.723999" y="0" width="260" height="260" filterUnits="userSpaceOnUse" color-interpolation-filters="sRGB">
<feFlood flood-opacity="0" result="BackgroundImageFix"/>
<feColorMatrix in="SourceAlpha" type="matrix" values="0 0 0 0 0 0 0 0 0 0 0 0 0 0 0 0 0 0 127 0" result="hardAlpha"/>
<feOffset dy="4"/>
<feGaussianBlur stdDeviation="20"/>
<feComposite in2="hardAlpha" operator="out"/>
<feColorMatrix type="matrix" values="0 0 0 0 0.0367917 0 0 0 0 0.0348958 0 0 0 0 0.0484375 0 0 0 0.1 0"/>
<feBlend mode="normal" in2="BackgroundImageFix" result="effect1_dropShadow_20_1678"/>
<feBlend mode="normal" in="SourceGraphic" in2="effect1_dropShadow_20_1678" result="shape"/>
</filter>
<linearGradient id="paint0_linear_20_1678" x1="180.479" y1="76.115" x2="82.476" y2="174.118" gradientUnits="userSpaceOnUse">
<stop stop-color="#FFAA2A"/>
<stop offset="1" stop-color="#FFC06C"/>
</linearGradient>
<linearGradient id="paint1_linear_20_1678" x1="131.063" y1="84.1642" x2="131.063" y2="166.517" gradientUnits="userSpaceOnUse">
<stop stop-color="#251200"/>
<stop offset="1"/>
</linearGradient>
</defs>
</svg>
