<svg width="261" height="261" viewBox="0 0 261 261" fill="none" xmlns="http://www.w3.org/2000/svg">
<g filter="url(#filter0_d_33_2416)">
<rect x="40.2761" y="36.188" width="180" height="180" rx="32" fill="white"/>
<rect x="40.7761" y="36.688" width="179" height="179" rx="31.5" stroke="#D9D9D9"/>
</g>
<path fill-rule="evenodd" clip-rule="evenodd" d="M107.795 165.047L95.3585 160.584V142.356L107.795 146.594V165.047ZM110.076 165.047L122.512 160.585V142.356L110.076 146.594V165.047ZM96.6365 140.993L109.223 137.449L120.894 141.213L109.223 145.175L96.6365 140.993ZM92.9884 139.581L80.5521 135.12V116.89L92.9884 121.128V139.581ZM95.2697 139.581L107.707 135.12V116.89L95.2697 121.128V139.581ZM81.8301 115.526L94.4175 111.983L106.089 115.747L94.4175 119.709L81.8301 115.527V115.526ZM122.008 139.581L109.571 135.12V116.89L122.008 121.128V139.581ZM124.289 139.581L136.726 135.12V116.89L124.289 121.128V139.581ZM110.85 115.526L123.437 111.983L135.107 115.747L123.437 119.709L110.85 115.527V115.526ZM136.814 114.114L124.377 109.654V91.4243L136.814 95.6608V114.114ZM139.096 114.114L151.532 109.654V91.4243L139.095 95.6608V114.114H139.096ZM125.656 90.0608L138.243 86.5173L149.914 90.2799L138.243 94.2433L125.656 90.0608ZM165.835 114.114L153.397 109.654V91.4243L165.835 95.6608V114.114ZM168.115 114.114L180.552 109.654V91.4243L168.115 95.6608V114.114ZM154.675 90.0608L167.263 86.5173L178.933 90.2799L167.263 94.2425L154.675 90.06" fill="#FF9900"/>
<defs>
<filter id="filter0_d_33_2416" x="0.276123" y="0.187988" width="260" height="260" filterUnits="userSpaceOnUse" color-interpolation-filters="sRGB">
<feFlood flood-opacity="0" result="BackgroundImageFix"/>
<feColorMatrix in="SourceAlpha" type="matrix" values="0 0 0 0 0 0 0 0 0 0 0 0 0 0 0 0 0 0 127 0" result="hardAlpha"/>
<feOffset dy="4"/>
<feGaussianBlur stdDeviation="20"/>
<feComposite in2="hardAlpha" operator="out"/>
<feColorMatrix type="matrix" values="0 0 0 0 0.0367917 0 0 0 0 0.0348958 0 0 0 0 0.0484375 0 0 0 0.1 0"/>
<feBlend mode="normal" in2="BackgroundImageFix" result="effect1_dropShadow_33_2416"/>
<feBlend mode="normal" in="SourceGraphic" in2="effect1_dropShadow_33_2416" result="shape"/>
</filter>
</defs>
</svg>
