<svg width="261" height="260" viewBox="0 0 261 260" fill="none" xmlns="http://www.w3.org/2000/svg">
<g filter="url(#filter0_d_25_419)">
<rect x="40.9329" y="36" width="180" height="180" rx="32" fill="white"/>
<rect x="41.4329" y="36.5" width="179" height="179" rx="31.5" stroke="#D9D9D9"/>
</g>
<path fill-rule="evenodd" clip-rule="evenodd" d="M172.176 113.667C168.091 113.667 165.783 114.456 164.458 116.304C163.073 118.235 162.795 121.282 162.795 125.574C162.795 134 164.099 137.522 172.176 137.522C173.146 137.522 176.462 137.504 178.398 137.267C179.152 137.142 179.489 136.566 179.489 136.049V135.119C179.489 134.395 178.942 133.848 178.216 133.848H172.176C167.618 133.848 166.796 132.774 166.68 126.667V124.689C166.718 118.44 167.54 117.341 172.176 117.341C176.451 117.341 177.27 118.316 177.412 123.818H170.62V127.533H179.554C181.313 127.533 181.313 126.302 181.313 125.898V124.712C181.186 116.144 179.136 113.667 172.176 113.667ZM160.413 113.994L160.316 113.969C159.484 113.794 157.21 113.667 156.083 113.667C152.094 113.667 149.985 115.337 149.985 118.497V136.09C149.985 136.814 150.492 137.32 151.218 137.32H152.637C153.363 137.32 153.87 136.814 153.87 136.09V118.82C153.87 118.04 154.068 117.341 156.448 117.341L159.972 117.338C160.317 117.379 160.647 117.283 160.9 117.069C161.177 116.835 161.329 116.495 161.329 116.111V115.22C161.329 114.636 160.995 114.189 160.413 113.994ZM143.376 113.95H141.957C141.232 113.95 140.724 114.456 140.724 115.18V133.849H134.823C131.173 133.849 129.692 133.616 129.692 127.799V115.18C129.692 114.456 129.185 113.95 128.459 113.95H127.08C126.354 113.95 125.807 114.479 125.807 115.18V127.799C125.807 136.067 128.806 137.522 135.107 137.522C137.374 137.522 140.478 137.522 143.438 137.105L143.507 137.092C144.238 136.909 144.609 136.49 144.609 135.847V115.18C144.609 114.456 144.102 113.95 143.376 113.95Z" fill="#272727"/>
<path fill-rule="evenodd" clip-rule="evenodd" d="M121.43 114.528C121.248 114.141 120.857 113.91 120.385 113.91H118.561C118.032 113.91 117.636 114.123 117.427 114.507L114.724 118.457L117.09 121.693L121.222 115.766C121.676 115.215 121.519 114.717 121.43 114.528Z" fill="#74BB11"/>
<path fill-rule="evenodd" clip-rule="evenodd" d="M107.178 114.462L107.176 114.459C106.764 113.909 106.215 113.909 106.035 113.909H104.251C103.794 113.909 103.42 114.12 103.224 114.485C103.023 114.86 103.066 115.31 103.344 115.727L109.953 124.888L102.353 135.488C102.088 135.887 102.051 136.33 102.251 136.704C102.448 137.07 102.822 137.279 103.279 137.279H105.102C105.571 137.279 105.984 137.036 106.19 136.652L114.696 124.931L107.178 114.462Z" fill="#009CD9"/>
<path fill-rule="evenodd" clip-rule="evenodd" d="M122.337 135.581L117.035 128.304L114.703 131.519L118.896 137.116L119.005 137.163C119.171 137.238 119.352 137.277 119.534 137.279H121.317C121.748 137.279 122.114 137.088 122.321 136.753C122.533 136.411 122.539 135.984 122.337 135.581Z" fill="#EB2084"/>
<path fill-rule="evenodd" clip-rule="evenodd" d="M95.3391 127.371V133.55C93.5334 133.827 90.7809 133.889 89.8428 133.889C85.6931 133.889 85.2384 132.755 85.2384 130.347C85.2384 128.094 86.0817 127.37 88.7078 127.37L95.3391 127.371ZM89.6402 113.667C88.358 113.667 86.6094 113.7 84.4338 113.962L84.3355 113.983C83.7017 114.164 83.3808 114.58 83.3808 115.22V116.11C83.3808 116.869 83.8531 117.34 84.6135 117.34H89.6405C93.688 117.34 95.3391 118.437 95.3391 121.125V123.737H88.7078C83.525 123.737 81.3134 125.714 81.3134 130.347C81.3134 135.51 83.6025 137.522 89.4781 137.522C91.8581 137.522 96.2391 137.337 97.8583 136.843C99.2237 136.464 99.2237 135.421 99.2237 135.079V120.883C99.2237 116.027 96.0889 113.667 89.6405 113.667H89.6402Z" fill="#272727"/>
<defs>
<filter id="filter0_d_25_419" x="0.932861" y="0" width="260" height="260" filterUnits="userSpaceOnUse" color-interpolation-filters="sRGB">
<feFlood flood-opacity="0" result="BackgroundImageFix"/>
<feColorMatrix in="SourceAlpha" type="matrix" values="0 0 0 0 0 0 0 0 0 0 0 0 0 0 0 0 0 0 127 0" result="hardAlpha"/>
<feOffset dy="4"/>
<feGaussianBlur stdDeviation="20"/>
<feComposite in2="hardAlpha" operator="out"/>
<feColorMatrix type="matrix" values="0 0 0 0 0.0367917 0 0 0 0 0.0348958 0 0 0 0 0.0484375 0 0 0 0.1 0"/>
<feBlend mode="normal" in2="BackgroundImageFix" result="effect1_dropShadow_25_419"/>
<feBlend mode="normal" in="SourceGraphic" in2="effect1_dropShadow_25_419" result="shape"/>
</filter>
</defs>
</svg>
