<svg width="261" height="261" viewBox="0 0 261 261" fill="none" xmlns="http://www.w3.org/2000/svg">
<g filter="url(#filter0_d_33_2161)">
<rect x="40.4851" y="36.8909" width="180" height="180" rx="32" fill="white"/>
<rect x="40.9851" y="37.3909" width="179" height="179" rx="31.5" stroke="#D9D9D9"/>
</g>
<path d="M149.343 110.47L149.321 110.255L148.974 110.285L148.996 110.499L149.343 110.47ZM151.677 116.083L151.684 116.201L151.928 116.179C151.921 116.105 151.95 115.987 152.002 115.839L151.98 115.625C151.876 115.632 151.773 115.787 151.677 116.083ZM142.57 123.15C142.556 122.951 141.935 122.176 140.709 120.809C140.687 120.558 141.108 120.182 141.972 119.687L144.439 117.538C144.993 116.836 145.318 115.699 145.414 114.118L145.384 113.756C145.288 112.663 144.498 111.784 142.999 111.112C142.113 110.514 140.517 110.182 138.213 110.123C136.308 110.285 133.819 110.964 130.754 112.168C129.912 112.774 128.952 113.38 127.873 113.985L127.888 114.17C127.955 114.162 128.058 114.125 128.176 114.044C128.302 114.029 128.376 114.089 128.383 114.207L128.568 114.111L128.656 114.103L128.664 114.184C128.671 114.281 128.006 114.805 126.662 115.743L126.766 115.935L126.677 115.942L126.455 115.861C126.463 115.927 126.367 115.972 126.182 115.987L126.189 116.068L126.404 116.334C126.337 116.341 126.234 116.312 126.094 116.26C125.783 116.289 125.48 116.452 125.178 116.762L125.303 116.216C125.754 114.273 126.064 112.552 126.226 111.06L126.204 110.964C125.894 110.765 125.591 110.484 125.311 110.13C125.318 109.901 125.318 109.768 125.311 109.738L125.288 109.657L125.2 109.679C124.225 111.142 122.349 113.638 119.565 117.168C117.445 119.679 116.352 121.075 116.285 121.356C115.421 122.25 115.008 122.789 115.052 122.973C114.823 123.121 114.727 123.269 114.764 123.431C114.698 123.446 114.653 123.424 114.638 123.357C114.269 123.956 113.723 124.34 112.992 124.509L112.223 124.687C112.12 124.709 112.068 124.783 112.076 124.908L112.098 125.004L112.386 124.938L112.408 125.019L111.758 125.27L110.606 125.536L110 125.573C109.912 125.662 110.48 125.566 110.259 125.617L109.506 125.795C109.048 125.898 108.797 125.861 108.752 125.676L108.664 125.699C108.678 125.78 108.686 125.839 108.671 125.891L108.627 125.706L108.021 125.846C107.977 125.566 107.157 124.546 105.569 122.789C105.54 122.449 106.101 121.954 107.246 121.312L110.48 118.468C111.204 117.538 111.633 116.046 111.773 113.992L111.729 113.512C111.603 112.065 110.554 110.898 108.582 109.997C107.415 109.207 105.318 108.786 102.29 108.719C99.7789 108.933 96.4996 109.827 92.4671 111.385C91.3593 112.19 90.0964 112.988 88.6785 113.778L88.7005 114.029C88.7966 114.022 88.922 113.97 89.0771 113.882C89.2396 113.867 89.3283 113.941 89.3431 114.089L89.5941 113.948L89.7197 113.941L89.7271 114.059C89.7345 114.177 88.8556 114.864 87.0757 116.119L87.216 116.341L87.0906 116.349L86.8171 116.252C86.8246 116.326 86.699 116.378 86.4406 116.4L86.4552 116.533L86.7507 116.858C86.6548 116.866 86.5218 116.836 86.3519 116.777C85.7759 116.829 85.2146 117.242 84.6607 118.025L84.8009 118.247C85.281 117.803 85.5617 117.582 85.6429 117.575L85.6724 117.936C85.5912 117.944 85.4656 117.995 85.2958 118.084L85.5986 118.542C86.1705 117.924 86.8182 117.38 87.5263 116.925C87.8734 117.013 88.058 117.124 88.0654 117.242L88.3312 117.22C90.2367 115.809 92.1201 114.79 93.9886 114.162L94.0107 114.413C93.6636 114.93 93.4273 115.196 93.3017 115.211C93.3166 115.388 93.3755 115.543 93.4863 115.676C93.516 115.994 92.6666 118.136 90.9457 122.094C87.0388 131.297 83.7595 138.106 81.0935 142.508C81.1007 142.597 81.1525 142.715 81.2486 142.863C81.9058 142.708 82.3195 142.545 82.4966 142.39L82.6371 142.375L82.6591 142.626L82.9029 142.604L83.1541 142.464C83.1615 142.538 83.2427 142.575 83.4125 142.56L83.4347 142.811C83.4568 143.055 83.3166 143.424 83.021 143.933C82.7552 144.236 82.4671 144.871 82.1644 145.839L82.1716 145.957L82.4154 145.935C83.4791 144.746 84.2839 143.579 84.8378 142.442C87.9398 141.533 90.3033 140.64 91.9427 139.761C93.5898 139.62 94.8453 139.184 95.7021 138.468L95.6873 138.335L95.0669 138.52L94.9265 138.535L94.9117 138.402C96.123 138.217 96.9576 137.951 97.4228 137.582C99.7789 135.765 101.559 134.48 102.763 133.719C105.237 131.902 106.847 130.13 107.578 128.409C107.716 128.379 107.854 128.347 107.992 128.313C108.339 128.298 108.531 128.291 108.582 128.276C108.568 128.21 108.597 128.173 108.664 128.158C109.218 128.099 108.952 128.195 109.306 128.114L110.237 127.9C110.178 127.914 110.155 127.944 110.17 128.003L110.31 127.914C110.281 127.914 110.259 127.907 110.237 127.9L110.392 127.863L110.318 127.907C110.421 127.922 110.532 127.914 110.658 127.885L110.724 128.158L106.492 134.886L105.554 136.06L105.096 137.597L105.185 137.575L105.643 137.383L105.495 137.981L105.54 138.158L105.665 138.313C105.606 138.328 105.584 138.365 105.599 138.431L105.621 138.527L105.813 138.483C106.094 138.239 106.212 138.018 106.167 137.818C106.47 137.87 106.669 137.892 106.773 137.863L106.795 137.958C106.611 138.003 106.514 138.15 106.5 138.402L106.522 138.498L106.625 138.475C108.161 136.799 111.928 131.06 114.949 127.168C114.853 126.747 116.426 126.164 119.675 125.41L119.779 125.388C119.897 125.898 119.646 127.131 119.026 129.089C118.627 130.27 118.435 130.92 118.464 131.024C117.947 132.597 117.703 133.446 117.733 133.579L116.581 137.353C115.835 139.288 115.266 141.319 114.868 143.461C114.934 143.446 115.037 143.453 115.185 143.49L115.347 143.35C115.362 143.417 115.407 143.439 115.473 143.424L115.407 143.15L115.909 143.136C116.056 143.099 116.182 142.914 116.285 142.575C116.263 142.065 116.367 141.792 116.596 141.733C116.906 140.521 117.098 139.916 117.164 139.893C117.452 138.69 117.667 138.003 117.807 137.833C118.243 136.267 118.56 135.462 118.767 135.41L118.811 135.603L118.494 136.422C117.94 138.882 117.378 140.824 116.81 142.25L116.972 142.958L117.076 142.936C118.449 139.982 120.429 134.133 123.006 125.388C123.08 124.62 123.449 124.022 124.107 123.601L123.959 123.446L123.937 123.365C124.232 123.298 124.439 123.18 124.557 123.018C124.543 122.951 124.284 122.855 123.782 122.722L125.067 117.213C125.347 116.961 125.51 116.829 125.562 116.829L125.584 117.109C125.517 117.117 125.414 117.153 125.296 117.235L125.54 117.582C125.983 117.102 126.463 116.688 126.987 116.341C127.253 116.415 127.386 116.504 127.401 116.592L127.593 116.577C129.055 115.507 130.488 114.738 131.898 114.273L131.913 114.458C131.655 114.849 131.477 115.049 131.381 115.056C131.396 115.189 131.433 115.307 131.5 115.41C131.522 115.654 130.887 117.279 129.587 120.292C126.618 127.272 124.129 132.434 122.105 135.787C122.113 135.854 122.157 135.942 122.238 136.06C122.733 135.942 123.051 135.817 123.176 135.699L123.265 135.691L123.28 135.876L123.486 135.861L123.671 135.765C123.678 135.817 123.745 135.839 123.87 135.832L123.885 136.031C123.9 136.208 123.797 136.489 123.568 136.873C123.353 137.102 123.132 137.582 122.895 138.313L122.903 138.409L123.095 138.394C123.9 137.493 124.513 136.607 124.934 135.735C127.29 135.041 129.085 134.369 130.325 133.704C131.588 133.594 132.541 133.269 133.191 132.722L133.184 132.626L132.703 132.767L132.6 132.774L132.593 132.678C133.509 132.545 134.151 132.338 134.498 132.065C136.285 130.691 137.637 129.709 138.553 129.133C141.404 127.058 142.733 125.063 142.57 123.15ZM142.083 123.276L142.15 124.022C142.061 124.207 141.965 124.303 141.876 124.31L141.766 123.04C141.972 123.114 142.076 123.187 142.083 123.276ZM86.1599 117.264L86.0343 117.272L86.0123 117.043L86.5218 116.998L86.5292 117.117C86.448 117.124 86.3224 117.168 86.1599 117.264ZM83.671 142.161C83.3755 142.028 83.1097 141.976 82.8808 141.998L82.8511 141.636C82.8365 141.496 82.9177 141.4 83.0949 141.363C83.2574 141.349 83.3535 141.467 83.3681 141.703C83.7966 141.179 84.033 140.913 84.0773 140.905L84.3505 141.016C84.2619 141.755 84.033 142.131 83.671 142.161ZM110.266 114.34C110.141 114.354 109.89 113.963 109.528 113.187L109.506 112.958C109.742 112.936 109.986 113.32 110.244 114.111L110.266 114.34ZM109.912 111.585L109.808 111.829L106.197 110.322C108.604 110.403 109.845 110.824 109.912 111.585ZM94.6607 124.679L94.1511 124.724L94.1289 124.495L94.6384 124.45L94.6607 124.679ZM94.247 116.814L94.3726 116.806L94.4021 117.168C94.2839 117.176 94.1289 117.353 93.9369 117.693L93.9146 117.442C94.1437 117.168 94.2619 116.961 94.247 116.814ZM93.1761 119.34L93.2205 119.82L93.0949 119.827L93.0505 119.347L93.1761 119.34ZM92.6148 120.241L92.8585 120.218C92.8365 120.617 92.7257 120.832 92.5263 120.846L92.4007 120.854C92.5558 120.588 92.6296 120.381 92.6148 120.241ZM92.1939 121.496L92.3341 121.481L92.3416 121.6L92.1126 121.984L91.8689 122.006L91.8615 121.888C92.1052 121.866 92.216 121.74 92.1939 121.496ZM91.7802 122.626L91.7064 123.232L91.5808 123.239L91.5292 122.641L91.7802 122.626ZM87.6371 134.406C87.4746 135.233 87.2972 135.654 87.1126 135.669L87.1052 135.551C87.0609 135.145 87.2382 134.761 87.6371 134.406ZM86.8763 136.053L86.8837 136.171C86.8984 136.334 86.8246 136.43 86.6621 136.437L86.6548 136.319C86.64 136.179 86.7138 136.09 86.8763 136.053ZM86.6548 139.473L87.0388 139.436L87.0535 139.569C86.9576 139.576 86.832 139.628 86.6769 139.716L86.4332 139.738C86.4183 139.613 86.4996 139.517 86.6546 139.473H86.6548ZM97.5853 136.097C95.4287 137.161 94.1583 137.885 93.7818 138.261C91.448 139.074 90.2884 139.576 90.3105 139.775C88.2353 140.595 86.8689 141.201 86.2117 141.577C86.0566 141.592 85.8349 141.533 85.5396 141.4C85.5027 140.979 85.6947 140.64 86.1007 140.366C86.4626 140.337 86.8097 140.388 87.1421 140.529C87.5263 140.329 88.1984 140.108 89.1511 139.871L89.1289 139.62L88.3609 139.687C88.4568 139.554 89.1953 139.207 90.5837 138.645L90.9679 138.608L90.9753 138.727C90.3179 138.786 89.956 138.978 89.8748 139.325C89.8896 139.48 89.9783 139.546 90.1408 139.532C90.6355 139.221 90.8792 139.037 90.8718 138.985C91.8099 138.808 94.4021 137.449 98.6488 134.916L98.671 135.145C98.6785 135.255 98.3166 135.566 97.5853 136.097ZM91.0712 138.239C91.6917 138.187 92.2234 137.936 92.6666 137.501C92.8437 137.486 92.9398 137.552 92.9472 137.707C92.6443 137.737 92.0609 137.988 91.2117 138.475L91.0861 138.483L91.0712 138.239ZM101.581 130.167L98.3238 132.744C95.9013 134.332 94.6015 135.13 94.4169 135.145C90.5617 137.264 88.1615 138.365 87.2308 138.446L87.0906 138.461C87.2087 138.025 88.922 134.517 92.2457 127.914C93.708 127.789 96.0123 127.109 99.1511 125.868L99.9191 125.802C101.507 125.662 102.696 125.972 103.479 126.71L103.523 127.19C102.932 128.889 102.283 129.879 101.581 130.167ZM95.2146 126.585L95.739 126.541L95.7462 126.659L95.222 126.703L95.2146 126.585ZM102.578 125.337L102.962 125.3C103.317 125.47 103.501 125.617 103.516 125.75L103.523 125.868C103.184 125.898 102.866 125.721 102.578 125.337ZM103.619 119.406C103.28 119.812 102.349 120.507 100.827 121.481C100.325 121.526 98.4568 122.25 95.222 123.667C95.0603 123.594 94.8821 123.563 94.705 123.579L94.6828 123.35C94.6458 122.885 94.8527 122.301 95.3105 121.592C95.5617 120.263 95.8349 119.502 96.1378 119.317L98.8335 113.254C98.8039 112.877 99.38 112.589 100.562 112.39L100.946 112.353L100.975 112.7C102.135 112.523 102.859 112.419 103.139 112.397C105.281 112.213 106.396 112.648 106.485 113.69L106.729 113.667L106.677 113.055L106.943 113.032C107.57 113.38 107.91 113.8 107.955 114.295C107.984 114.635 107.8 115.056 107.408 115.558C107.246 115.573 107.15 115.455 107.135 115.218L106.869 115.241L106.81 115.979C105.724 117.604 104.934 118.439 104.446 118.483C104.003 119.096 103.73 119.399 103.619 119.406ZM105.274 123.653C105.052 123.505 104.875 123.439 104.742 123.446L104.712 123.084L104.956 123.062L105.495 123.38C105.517 123.549 105.444 123.638 105.274 123.653ZM106.987 125.684C107.223 125.78 107.364 125.883 107.393 125.979L107.275 126.009L107.283 126.016C107.26 126.016 107.231 126.024 107.209 126.031L107.031 126.171L106.987 125.684ZM107.15 126.703L107.127 126.607L107.438 126.533L107.46 126.629L107.15 126.703ZM107.895 127.538C108.213 127.486 108.368 127.464 108.959 127.331L108.981 127.427L107.859 127.685C107.873 127.633 107.888 127.582 107.895 127.538ZM108.989 128.003C108.516 128.047 108.619 127.988 107.866 128.158L107.844 128.062L108.782 127.759L109.232 127.656L109.277 127.833C109.077 127.877 109.225 127.877 108.989 128.003ZM109.986 127.767C109.875 127.796 109.786 127.744 109.735 127.619L110.023 127.552C110.148 127.523 110.229 127.575 110.259 127.7L109.986 127.767ZM112.689 124.857L112.667 124.761L113.132 124.65L113.176 124.827L112.689 124.857ZM115.577 142.567C115.606 142.434 115.613 142.338 115.599 142.272L115.702 142.25C115.827 142.22 115.901 142.264 115.931 142.383L115.953 142.478L115.577 142.567ZM117.6 125.617L117.393 125.58C117.061 125.713 116.78 125.809 116.551 125.861L116.359 125.905C116.249 125.935 116.16 125.891 116.116 125.772L117.467 125.462L117.91 125.255L118.058 125.425C117.844 125.47 117.689 125.536 117.6 125.617ZM118.641 125.285L118.619 125.189C118.686 125.174 118.774 125.123 118.87 125.026L119.83 124.805L119.853 124.901C119.343 125.026 118.937 125.152 118.641 125.285ZM118.789 123.342C118.723 123.357 118.634 123.417 118.523 123.505C118.509 123.439 118.376 123.439 118.124 123.498C118.08 123.313 118.789 123.055 120.259 122.715L120.466 122.67L120.51 122.848C119.476 123.15 118.9 123.32 118.789 123.342ZM121.374 120.551C121.271 121.725 120.857 122.39 120.126 122.56L120.104 122.464L119.454 122.715L119.166 122.781C119.018 122.818 118.885 122.811 118.767 122.774L118.708 122.515C118.686 122.419 119.624 121.119 121.529 118.623L121.751 118.66C121.832 119 121.706 119.628 121.374 120.551ZM125.946 116.636L125.857 116.644L125.842 116.459L126.226 116.422L126.234 116.518C126.167 116.533 126.071 116.57 125.946 116.636ZM124.062 135.551C123.841 135.447 123.641 135.403 123.472 135.418L123.449 135.137C123.442 135.041 123.501 134.975 123.627 134.938C123.752 134.923 123.826 135.012 123.841 135.204C124.158 134.798 124.336 134.591 124.373 134.591L124.572 134.672C124.498 135.233 124.328 135.529 124.062 135.551ZM144.254 114.428C144.158 114.436 143.974 114.14 143.686 113.542L143.671 113.357C143.856 113.342 144.048 113.631 144.24 114.221L144.254 114.428ZM143.989 112.316L143.9 112.508L141.167 111.363C142.992 111.422 143.937 111.74 143.989 112.316ZM132.401 122.264L132.017 122.301L132.002 122.117L132.386 122.087L132.401 122.264ZM132.083 116.289L132.186 116.282L132.209 116.563C132.113 116.57 131.994 116.703 131.854 116.961L131.839 116.777C132.009 116.563 132.09 116.4 132.083 116.289ZM131.278 118.21L131.308 118.572L131.204 118.579L131.175 118.217L131.278 118.21ZM130.842 118.897L131.034 118.882C131.012 119.192 130.931 119.354 130.791 119.369L130.687 119.376C130.798 119.17 130.85 119.007 130.842 118.897ZM130.532 119.842L130.621 119.834L130.628 119.93L130.458 120.226L130.266 120.241L130.259 120.145C130.458 120.13 130.547 120.026 130.532 119.842ZM130.222 120.699L130.155 121.171L130.067 121.179L130.03 120.713L130.222 120.699ZM127.068 129.657C126.943 130.278 126.81 130.595 126.669 130.61L126.662 130.529C126.64 130.218 126.773 129.923 127.068 129.657ZM126.485 130.905L126.492 130.987C126.507 131.119 126.448 131.193 126.315 131.201L126.308 131.105C126.3 131.009 126.359 130.942 126.485 130.905ZM126.322 133.505L126.618 133.483L126.625 133.579C126.559 133.586 126.455 133.623 126.337 133.69L126.145 133.704C126.138 133.601 126.197 133.535 126.322 133.505ZM134.616 130.942C132.992 131.747 132.024 132.294 131.721 132.575C129.949 133.195 129.07 133.579 129.085 133.734C127.511 134.362 126.477 134.812 125.99 135.1C125.872 135.108 125.702 135.063 125.48 134.96C125.451 134.642 125.599 134.384 125.909 134.192C126.189 134.17 126.455 134.207 126.699 134.31C126.994 134.162 127.504 134 128.228 133.815L128.213 133.631L127.607 133.675C127.681 133.572 128.25 133.306 129.306 132.877L129.602 132.855L129.609 132.936C129.107 132.981 128.826 133.128 128.767 133.394C128.774 133.512 128.848 133.572 128.974 133.557C129.343 133.313 129.52 133.173 129.52 133.128C130.229 133.003 132.194 131.969 135.421 130.034L135.436 130.218C135.444 130.3 135.17 130.536 134.616 130.942ZM129.668 132.567C130.148 132.523 130.554 132.338 130.894 132.013C131.019 131.998 131.094 132.058 131.101 132.176C130.879 132.198 130.444 132.383 129.786 132.737L129.683 132.744L129.668 132.567ZM137.659 126.43L135.2 128.409C133.361 129.613 132.364 130.218 132.209 130.233C129.284 131.843 127.467 132.678 126.751 132.737L126.647 132.744C126.736 132.412 128.043 129.746 130.569 124.738C131.669 124.642 133.412 124.118 135.805 123.173L136.404 123.121C137.607 123.018 138.509 123.254 139.099 123.823L139.129 124.184C138.678 125.455 138.191 126.201 137.659 126.43ZM132.829 123.712L133.213 123.675L133.22 123.771L132.836 123.808L132.829 123.712ZM138.42 122.759L138.715 122.737C138.989 122.87 139.129 122.988 139.136 123.084L139.144 123.165C138.885 123.187 138.641 123.055 138.42 122.759ZM139.195 118.261C138.937 118.572 138.235 119.103 137.091 119.842C136.706 119.879 135.288 120.425 132.836 121.489C132.718 121.444 132.585 121.43 132.445 121.437L132.43 121.252C132.401 120.898 132.556 120.455 132.895 119.916C133.087 118.897 133.302 118.328 133.523 118.195L135.584 113.586C135.562 113.313 135.997 113.092 136.884 112.922L137.179 112.9L137.201 113.18C138.073 113.04 138.619 112.958 138.841 112.936C140.466 112.796 141.315 113.121 141.381 113.919L141.573 113.904L141.536 113.461L141.729 113.446C142.201 113.704 142.452 114.015 142.482 114.384C142.504 114.65 142.371 114.975 142.09 115.351C141.965 115.366 141.891 115.278 141.876 115.086L141.684 115.1L141.625 115.654C140.805 116.902 140.207 117.545 139.83 117.575C139.498 118.025 139.291 118.254 139.195 118.261ZM140.06 121.334L140.037 121.053L140.229 121.038L140.643 121.289C140.65 121.408 140.591 121.474 140.466 121.489C140.288 121.378 140.155 121.326 140.06 121.334ZM105.68 139.273L105.488 139.317L105.325 139.458C105.355 139.576 105.429 139.62 105.554 139.591C105.68 139.561 105.732 139.487 105.702 139.369L105.68 139.273ZM104.949 137.818L104.971 137.914C105.096 137.885 105.148 137.811 105.119 137.693L105.096 137.597C104.978 137.626 104.927 137.7 104.949 137.818ZM110.148 125.447L110.37 125.396L110.325 125.204L110.104 125.255L110.148 125.447ZM177.164 131.075C174.919 131.577 174.638 131.489 174.166 131.526L174.181 131.71L174.387 131.696L174.498 131.688L174.469 131.666L174.712 131.57C176.935 131.326 177.194 131.415 177.172 131.164L177.164 131.075ZM165.074 132.678L165.089 132.863H165.119L165.104 132.678H165.074ZM163.686 127.811L163.486 127.744C163.324 128.18 163.243 128.439 163.25 128.512L163.257 128.594C163.412 128.586 163.553 128.32 163.686 127.811ZM177.622 131.038L177.637 131.223L177.962 131.282L177.947 131.097L177.622 131.038ZM162.342 132.907L161.839 132.848L161.751 133.04L161.758 133.136L164.749 132.885L164.735 132.7L162.342 132.907ZM160.983 126.356L160.975 126.26L160.872 126.267L160.687 126.385L160.791 126.563C160.931 126.548 160.997 126.481 160.983 126.356ZM179.04 129.679L179.181 129.665C179.262 129.657 179.299 129.591 179.291 129.473L179.21 129.295C178.701 129.34 178.464 129.362 178.051 129.591L178.043 129.495L177.43 129.554C177.415 129.369 177.364 129.273 177.283 129.281L176.965 129.31C176.596 129.34 176.418 129.325 176.234 129.465C176.226 129.399 176.204 129.369 176.167 129.369L175.813 129.399L175.606 129.517C175.599 129.45 175.577 129.421 175.539 129.421L175.414 129.532L175.407 129.436L174.912 129.399L174.794 129.406L174.808 129.591L175.06 129.657L175.296 129.642C175.377 129.694 175.466 129.709 175.569 129.701L175.776 129.598L175.783 129.679C174.624 129.967 174.631 129.916 173.833 130.049C173.745 129.99 173.678 129.96 173.634 129.967L173.619 129.982C173.531 129.975 173.479 129.916 173.472 129.82L173.885 129.768C173.915 129.768 173.937 129.798 174.166 129.842C174.498 129.679 174.513 129.613 174.69 129.598L174.675 129.413C173.538 129.635 173.996 129.487 172.57 129.613L172.504 129.62L172.489 129.436C174.321 129.214 173.708 129.34 174.336 129.162C174.343 129.229 174.365 129.258 174.402 129.258C174.469 129.19 174.558 129.145 174.653 129.133L174.779 129.125C175.421 129.074 175.635 129.199 176.906 128.845L176.913 128.926L177.12 128.823L177.312 128.808C177.297 128.623 177.578 128.594 177.674 128.586L177.659 128.387C175.429 128.837 174.845 128.712 174.225 128.889L174.218 128.808C173.634 128.911 173.612 128.867 173.464 128.874C173.42 128.882 173.353 128.919 173.279 128.992C173.272 128.926 173.25 128.896 173.206 128.896C173.184 128.896 173.176 128.904 173.169 128.904L171.278 129.214C171.271 129.162 171.249 129.133 171.204 129.14C170.222 129.347 170.488 129.384 169.173 129.502C169.114 129.509 169.033 129.539 168.929 129.606C168.922 129.554 168.893 129.524 168.826 129.532L168.021 129.598L167.482 129.731C167.475 129.679 167.445 129.65 167.378 129.657C167.076 129.738 166.81 129.79 166.596 129.805H166.581C166.448 129.82 166.647 129.768 166.544 129.724L166.381 129.82C166.145 129.842 166.271 129.805 165.458 129.812C164.033 129.99 164.188 130.012 164.033 130.019L163.501 129.982C163.509 130.034 163.479 130.071 163.42 130.071C162.814 129.99 162.504 129.893 162.497 129.783C162.578 129.207 162.718 128.911 162.918 128.896L163.021 128.889L162.932 129.081L163.036 129.074C163.228 128.97 163.317 128.874 163.309 128.786L163.294 128.586L163.102 128.601L163.087 128.417C163.073 128.276 163.095 128.15 163.147 128.047L163.582 127.346L163.597 127.53L163.804 127.515L163.789 127.331L163.671 127.161C163.826 127.028 163.944 126.954 164.04 126.947L164.033 126.851L163.752 126.873L163.73 126.592C164.291 125.425 164.557 124.746 164.543 124.554L164.742 124.635C164.868 124.628 164.927 124.554 164.919 124.421L164.727 124.436L164.72 124.354C164.706 124.22 164.732 124.084 164.794 123.963C165.096 123.645 165.237 123.328 165.207 122.995C165.266 122.988 165.296 123.018 165.303 123.084C165.562 122.936 165.761 122.545 165.909 121.895C166.367 121.068 167.017 119.414 167.866 116.939C169.491 112.567 169.424 112.102 169.653 111.068L169.461 111.083C169.476 111.216 169.446 111.341 169.387 111.459C169.254 111.408 169.151 111.378 169.077 111.385L169.07 111.304C169.04 110.927 169.195 110.477 169.55 109.945L169.638 109.938L169.801 110.573L169.993 110.558C169.986 110.514 170.037 110.263 170.141 109.798C170.133 109.701 170.06 109.642 169.912 109.635L169.727 109.753C169.712 109.62 169.72 109.273 169.742 108.719L169.646 108.727C169.483 108.564 169.402 108.431 169.395 108.32L168.339 108.424C168.331 108.35 168.294 108.239 168.22 108.099C168.213 108.003 168.449 107.907 168.937 107.811L169.151 107.892L169.351 107.774C169.358 107.84 169.395 107.87 169.469 107.863L169.668 107.744C169.675 107.811 169.712 107.84 169.786 107.833L169.882 107.826L169.867 107.611C169.72 107.626 169.328 107.626 168.708 107.604L168.509 107.737L168.501 107.619C163.545 108.025 160.732 108.254 160.06 108.32C159.971 108.328 159.624 108.32 159.011 108.306C159.018 108.387 158.944 108.431 158.797 108.446L158.582 108.35L157.859 108.535C157.689 108.549 157.401 108.542 157.002 108.498C156.891 108.586 156.758 108.638 156.596 108.653C156.507 108.66 157.652 108.594 158.715 108.52C158.604 108.608 158.435 108.66 158.198 108.682C158.036 108.697 157.895 108.675 157.777 108.608C157.615 108.682 157.091 108.8 156.212 108.978L155.997 108.897L152.541 109.428C152.408 109.362 152.253 109.34 152.076 109.354C151.891 109.369 151.581 109.436 151.152 109.554L149.483 110.248L149.609 110.455C149.69 110.447 149.808 110.403 149.949 110.322L150.54 110.374L150.466 110.927C149.919 111.171 149.602 111.533 149.513 111.991C148.693 112.353 148.287 112.611 148.287 112.767L148.294 112.863L148.42 112.855L148.641 112.737L148.9 113.047L148.937 113.475C148.952 113.608 147.57 116.511 144.808 122.183C142.415 127.648 141.16 130.64 141.042 131.179C140.222 131.408 139.749 131.74 139.609 132.183C139.624 132.323 139.867 132.419 140.34 132.456L140.362 132.67L140.148 133.025L140.185 133.453C140.207 133.675 140.805 133.845 141.98 133.963C141.972 133.889 142.009 133.845 142.09 133.837C142.113 134.103 142.039 134.62 141.869 135.388L141.994 135.381C142.482 134.716 142.711 134.258 142.689 134.007L142.792 134C142.91 133.992 143.036 134.125 143.184 134.413C143.036 134.473 142.519 135.647 141.633 137.944L141.758 138.15L141.884 138.143C142.969 135.396 143.649 133.874 143.929 133.586C145.355 133.461 147.822 133.21 151.322 132.833L151.544 132.7C151.551 132.774 151.596 132.811 151.677 132.803L151.906 132.781L152.127 132.648C152.135 132.722 152.179 132.759 152.26 132.752L154.912 132.523C155.613 132.464 155.946 132.25 155.916 131.888C155.909 131.792 156.322 131.681 157.157 131.563C157.238 131.555 157.356 131.577 157.519 131.629C157.511 131.563 157.932 131.496 158.774 131.422C158.797 130.979 158.937 130.743 159.188 130.721L159.166 130.507C158.929 130.529 158.664 130.588 158.353 130.691C157.8 130.662 157.445 130.617 157.297 130.566C157.15 130.647 157.039 130.691 156.958 130.699L155.111 130.758L154.89 130.876C154.882 130.809 154.838 130.78 154.757 130.787L154.653 130.795L154.417 130.913C154.41 130.846 154.218 130.795 153.833 130.743L153.597 130.883L153.139 130.92L153.132 130.802C155.51 130.543 156.684 130.218 156.655 129.834C156.81 129.82 156.891 129.893 156.906 130.049L157.6 129.871L157.578 129.657L151.884 129.812C151.891 129.886 151.854 129.93 151.773 129.938L151.079 129.879C150.901 129.893 150.754 129.945 150.635 130.034L150.377 129.938C149.661 129.997 149.129 130.086 148.774 130.196C148.287 130.159 147.748 130.167 147.15 130.218L145.872 130.329L145.281 130.263C145.252 129.886 145.983 128.032 147.489 124.709C147.925 123.586 148.324 122.885 148.708 122.619C148.789 122.611 148.907 122.641 149.07 122.707L149.978 122.397L150.444 122.471C151.226 122.405 152.135 122.183 153.176 121.799C153.435 121.777 153.627 121.792 153.767 121.851L154.461 121.688L156.529 121.511C157.408 121.437 158.361 121.245 159.395 120.927L159.373 120.713C158.989 120.75 158.789 120.684 158.774 120.529C158.752 120.241 158.472 120.123 157.932 120.167L157.91 119.953L158.479 119.79L159.971 119.665L159.949 119.45C159.89 119.458 159.587 119.45 159.026 119.428L159.003 119.199L159.579 119.148C159.735 119.133 159.801 119.059 159.786 118.911C159.011 118.933 158.619 118.897 158.612 118.793C153.206 119.059 150.495 119.111 150.48 118.941C150.399 118.948 150.288 119 150.141 119.089L150 118.867C151.433 115.824 152.275 114.288 152.519 114.266C152.526 114.384 152.467 114.576 152.334 114.834L152.342 114.93L152.57 114.908C153.139 113.549 153.619 112.848 154.018 112.818C155.717 112.67 153.782 112.56 157.415 111.991C157.563 112.058 157.667 112.087 157.74 112.08C159.166 111.792 161.152 111.489 163.701 111.179L163.686 110.964L162.327 111.09L162.312 110.876C162.475 110.861 162.607 110.809 162.718 110.721L162.726 110.839C162.8 110.832 162.903 110.78 163.036 110.691C163.272 110.669 163.449 110.691 163.575 110.758C164.048 110.632 164.432 110.558 164.712 110.529L165.562 110.447C165.769 110.315 165.864 110.196 165.857 110.086L165.85 109.99C165.635 110.012 165.392 109.997 165.104 109.945C165.096 109.827 165.155 109.746 165.296 109.709L166.876 109.561L167.6 109.376C167.607 109.458 167.644 109.487 167.703 109.487C167.777 109.48 167.881 109.428 168.014 109.34C168.051 109.347 168.095 109.347 168.132 109.354C168.036 109.554 167.925 109.842 167.814 110.218L167.607 110.233C167.593 110.093 167.556 109.967 167.489 109.857L167.386 109.864C165.466 115.211 164.609 117.7 162.836 121.806C162.511 122.855 162.238 123.439 162.002 123.564C162.009 123.682 162.083 123.741 162.209 123.727C162.253 124.244 162.135 124.753 161.847 125.255C161.027 127.619 160.48 128.911 160.2 129.148L160.384 130.263C160.392 130.381 160.333 130.447 160.207 130.462L160.015 130.477C159.985 130.167 159.875 130.019 159.675 130.041L159.572 130.049C159.321 130.44 159.129 130.891 159.003 131.415L159.195 131.4C159.454 131.23 159.572 131.031 159.55 130.802L159.934 130.765L160.155 130.846C159.978 131.127 159.897 131.349 159.912 131.518L160.015 131.696L159.764 132.286L159.771 132.383C159.993 132.36 160.237 132.434 160.495 132.589C160.672 132.575 160.864 132.493 161.079 132.353C161.3 132.331 162.127 132.323 163.553 132.323L164.269 132.08C165.141 132.072 165.281 132.094 166.034 132.028L166.344 131.998L166.507 131.888L166.514 131.984C167.305 131.917 167.356 131.969 167.977 132.043L167.984 132.139L167.548 132.176L167.563 132.36C167.696 132.346 167.814 132.308 167.91 132.227C168.021 132.22 168.087 132.279 168.095 132.412C167.918 132.427 167.718 132.471 167.497 132.545L167.305 132.478C167.002 132.56 167.068 132.582 166.861 132.597L166.559 132.538C166.566 132.589 166.536 132.626 166.485 132.626C166.492 132.744 166.559 132.803 166.669 132.796L166.98 132.767L168.597 132.626L169.21 132.493C169.218 132.545 169.24 132.575 169.291 132.567L169.587 132.456L170.141 132.412C170.569 132.375 170.562 132.346 171.492 132.198C171.485 132.139 171.507 132.117 171.551 132.109L171.559 132.19C173.073 131.932 173.169 131.917 173.412 131.836L173.435 131.88C173.811 131.792 173.597 131.814 173.701 131.74C173.708 131.806 173.73 131.836 173.767 131.836L174.033 131.814L174.018 131.614L173.479 131.607L173.472 131.592C173.449 131.6 173.435 131.6 173.412 131.607H173.339V131.622C172.977 131.696 172.969 131.644 172.733 131.666L171.381 131.74L171.374 131.644L172.127 131.541L172.401 131.518L172.556 131.408L172.563 131.504C173.627 131.415 174.003 131.681 178.922 130.632C179.188 130.61 179.166 130.388 179.336 129.93C179.246 129.937 179.156 129.916 179.077 129.871C178.671 130.026 178.457 129.953 177.674 130.078C177.607 130.086 177.556 130.026 177.534 129.908L177.526 129.827L178.279 129.849C178.42 129.834 178.693 129.812 179.099 129.583C179.099 129.65 178.952 129.687 179.04 129.679ZM142.674 130.263L142.327 130.292C142.312 130.152 142.497 129.62 142.881 128.712L143.11 128.69C143.117 128.904 142.977 129.428 142.674 130.263ZM143.095 128.579L143.087 128.483C143.08 128.365 143.154 128.283 143.317 128.247L143.324 128.342C143.331 128.483 143.257 128.564 143.095 128.579ZM147.711 132.146L147.718 132.242L147.142 132.294L147.135 132.198L147.711 132.146ZM147.017 132.087C147.024 132.205 146.847 132.338 146.463 132.471L145.754 132.419L145.525 132.442L145.503 132.227L147.017 132.087ZM151.684 110.603L151.337 110.632L151.33 110.514C151.322 110.396 151.389 110.315 151.536 110.278L151.662 110.27L151.898 110.366C151.906 110.507 151.839 110.588 151.684 110.603ZM156.965 109.569L157.076 109.561L157.09 109.775L156.773 109.805C156.766 109.687 156.825 109.606 156.965 109.569ZM155.635 110.034L155.111 109.975L155.104 109.879C155.791 109.82 156.019 109.746 156.441 109.628C156.448 109.709 156.522 109.738 156.655 109.724L156.669 109.938L156.463 109.96C156.3 109.975 156.16 109.953 156.042 109.886C155.916 109.967 155.783 110.019 155.635 110.034ZM156.293 111.947L156.285 111.851L157.135 111.769L157.142 111.866L156.293 111.947ZM157.201 111.208L157.194 111.09L157.607 111.053L157.615 111.171L157.201 111.208ZM157.297 109.761L157.186 109.768L157.283 109.539L158.228 109.45L158.235 109.569C157.992 109.591 157.674 109.657 157.297 109.761ZM157.777 111.799L157.762 111.585L158.176 111.548C158.317 111.533 158.39 111.6 158.398 111.747L157.777 111.799ZM160.281 108.387L159.749 108.535L159.653 108.542C159.402 108.564 159.077 108.557 158.693 108.52C159.38 108.475 160.037 108.424 160.281 108.387ZM159.712 110.75L159.72 110.846L158.989 110.913L158.981 110.817L159.712 110.75ZM160.909 111.319C160.901 111.23 160.761 111.171 160.473 111.142L159.742 111.349L159.181 111.371C159.055 111.282 158.989 111.223 158.981 111.179L159.631 111.216L161.094 110.979L161.839 111.009L161.847 111.127C161.477 111.164 161.167 111.23 160.909 111.319ZM168.435 109.376C168.523 109.384 168.582 109.384 168.604 109.384C168.863 109.133 169.151 108.933 169.483 108.793C169.218 109.96 168.804 110.824 168.235 111.385L167.822 111.134C168.169 110.255 168.376 109.672 168.435 109.376ZM167.164 111.555L167.268 111.548C167.127 111.814 167.002 111.954 166.898 111.961L166.876 111.681C166.943 111.681 167.039 111.636 167.164 111.555ZM166.344 113.512C166.544 112.715 166.736 112.264 166.913 112.146L166.921 112.242C166.817 112.981 166.655 113.372 166.441 113.402L166.477 113.867C166.3 114.118 166.219 114.31 166.226 114.458L166.123 114.465L166.064 113.823C166.182 113.808 166.278 113.704 166.344 113.512ZM166.027 114.576C166.034 114.687 165.96 114.945 165.813 115.344L165.709 115.351L165.687 115.071C165.827 114.746 165.946 114.583 166.027 114.576ZM160.067 131.873L160.06 131.792L160.252 131.777L160.274 132.058C160.17 132.065 160.096 132.006 160.067 131.873ZM168.582 132.094C168.575 132.028 168.545 131.998 168.479 132.006L167.999 132.05L167.992 131.954H168.036L169.173 131.858L169.181 131.954C168.848 131.969 168.649 132.021 168.582 132.094ZM168.014 131.858C168.058 131.88 168.036 131.902 168.014 131.917C167.992 131.91 167.962 131.888 168.014 131.858ZM168.073 130.529L167.438 130.58L167.43 130.484L168.006 130.433L168.509 130.307C168.516 130.366 168.545 130.388 168.612 130.381C169.21 130.278 169.151 130.248 169.439 130.226C169.535 130.218 169.594 130.278 169.602 130.396L168.073 130.529ZM170.296 130.337C169.941 130.3 169.919 130.27 169.668 130.292L169.661 130.211L170.229 130.159L170.237 130.241C170.178 130.248 170.392 130.263 170.296 130.337ZM170.34 130.233L170.333 130.152L170.643 130.123L170.65 130.204L170.34 130.233ZM171.027 130.174L171.02 130.093C171.071 130.086 171.145 130.049 171.241 129.975C171.396 129.96 171.477 130.063 171.492 130.182L171.027 130.174ZM171.906 130.063L171.898 129.967L172.275 129.938L172.283 130.034L171.906 130.063ZM172.43 130.019C172.423 129.908 172.467 129.842 172.563 129.827L172.689 129.99C172.681 129.938 172.703 129.908 172.748 129.901L172.844 130.078L172.43 130.019ZM166.854 132.427L166.839 132.242L166.78 132.25L166.795 132.434L166.854 132.427ZM179.831 129.066C179.89 129.029 179.919 128.992 179.779 128.97C179.712 129.044 179.853 129.066 179.705 129.074L179.712 129.14C179.727 129.125 179.764 129.103 179.794 129.081L179.712 129.148V129.155L179.557 129.354L179.867 129.244H179.904L179.89 129.059L179.831 129.066ZM180.37 129.487L180.311 129.495L180.325 129.679L180.761 129.642C180.754 129.524 180.466 129.487 180.37 129.487ZM179.698 129.162L179.705 129.155V129.148C179.705 129.148 179.698 129.155 179.698 129.162Z" fill="black"/>
<path d="M151.345 115.492L151.352 115.61L151.596 115.588C151.588 115.514 151.618 115.396 151.67 115.248L151.647 115.034C151.544 115.041 151.441 115.196 151.345 115.492ZM149.011 109.879L148.989 109.665L148.641 109.694L148.664 109.908L149.011 109.879ZM142.238 122.56C142.223 122.36 141.603 121.585 140.377 120.218C140.355 119.967 140.776 119.591 141.64 119.096L144.107 116.947C144.661 116.245 144.986 115.108 145.082 113.527L145.052 113.165C144.956 112.072 144.166 111.193 142.667 110.521C141.78 109.923 140.185 109.591 137.881 109.532C135.975 109.694 133.486 110.374 130.421 111.577C129.579 112.183 128.619 112.789 127.541 113.394L127.556 113.579C127.622 113.572 127.726 113.535 127.844 113.453C127.969 113.439 128.043 113.498 128.051 113.616L128.235 113.52L128.324 113.512L128.331 113.594C128.339 113.69 127.674 114.214 126.33 115.152L126.433 115.344L126.345 115.351L126.123 115.27C126.13 115.337 126.034 115.381 125.85 115.396L125.857 115.477L126.071 115.743C126.005 115.75 125.902 115.721 125.761 115.669C125.451 115.699 125.148 115.861 124.845 116.171L124.971 115.625C125.421 113.682 125.732 111.961 125.894 110.47L125.872 110.374C125.562 110.174 125.259 109.893 124.978 109.539C124.986 109.31 124.986 109.177 124.978 109.148L124.956 109.066L124.868 109.089C123.893 110.551 122.017 113.047 119.232 116.577C117.113 119.089 116.02 120.484 115.953 120.765C115.089 121.659 114.675 122.198 114.72 122.383C114.491 122.53 114.395 122.678 114.432 122.84C114.365 122.855 114.321 122.833 114.306 122.767C113.937 123.365 113.39 123.749 112.659 123.919L111.891 124.096C111.788 124.118 111.736 124.192 111.743 124.317L111.766 124.413L112.053 124.347L112.076 124.428L111.426 124.679L110.274 124.945L109.668 124.982C109.579 125.071 110.148 124.975 109.927 125.026L109.173 125.204C108.715 125.307 108.464 125.27 108.42 125.086L108.331 125.108C108.346 125.189 108.353 125.248 108.339 125.3L108.294 125.115L107.689 125.255C107.645 124.975 106.825 123.956 105.237 122.198C105.207 121.858 105.769 121.363 106.913 120.721L110.148 117.877C110.872 116.947 111.3 115.455 111.441 113.402L111.396 112.922C111.271 111.474 110.222 110.307 108.25 109.406C107.083 108.616 104.986 108.195 101.958 108.128C99.4465 108.342 96.1674 109.236 92.1347 110.795C91.0269 111.6 89.764 112.397 88.3461 113.187L88.3681 113.439C88.4642 113.431 88.5898 113.38 88.7449 113.291C88.9074 113.276 88.9961 113.35 89.0107 113.498L89.2619 113.357L89.3875 113.35L89.3947 113.468C89.4021 113.586 88.5232 114.273 86.7433 115.529L86.8838 115.75L86.7582 115.758L86.4849 115.662C86.4924 115.735 86.3668 115.787 86.1082 115.809L86.123 115.942L86.4183 116.267C86.3224 116.275 86.1894 116.245 86.0197 116.186C85.4435 116.238 84.8822 116.651 84.3283 117.434L84.4687 117.656C84.9488 117.213 85.2293 116.991 85.3105 116.984L85.3402 117.346C85.259 117.353 85.1334 117.405 84.9635 117.493L85.2664 117.951C85.8383 117.333 86.4859 116.79 87.1939 116.334C87.541 116.422 87.7258 116.533 87.733 116.651L87.999 116.629C89.9045 115.218 91.7877 114.199 93.6562 113.572L93.6785 113.823C93.3312 114.34 93.0949 114.606 92.9693 114.62C92.9842 114.798 93.0433 114.953 93.1541 115.086C93.1836 115.403 92.3342 117.545 90.6135 121.504C86.7064 130.706 83.4273 137.515 80.7611 141.917C80.7685 142.006 80.8203 142.124 80.9162 142.272C81.5736 142.117 81.9871 141.954 82.1644 141.799L82.3047 141.784L82.3269 142.035L82.5705 142.013L82.8217 141.873C82.8291 141.947 82.9103 141.984 83.0802 141.969L83.1023 142.22C83.1244 142.464 82.9842 142.833 82.6886 143.342C82.4228 143.645 82.1347 144.281 81.832 145.248L81.8394 145.366L82.0832 145.344C83.1467 144.155 83.9517 142.988 84.5056 141.851C87.6076 140.942 89.9709 140.049 91.6105 139.17C93.2574 139.029 94.5129 138.594 95.3697 137.877L95.3549 137.744L94.7345 137.929L94.5941 137.944L94.5795 137.811C95.7906 137.626 96.6252 137.36 97.0906 136.991C99.4465 135.174 101.226 133.889 102.43 133.128C104.904 131.312 106.514 129.539 107.246 127.818C107.378 127.789 107.511 127.759 107.659 127.722C108.006 127.708 108.198 127.7 108.25 127.685C108.235 127.619 108.265 127.582 108.331 127.567C108.885 127.508 108.619 127.604 108.974 127.523L109.904 127.309L110.06 127.272L109.986 127.316C110.089 127.331 110.2 127.323 110.325 127.294L110.392 127.567L106.16 134.295L105.222 135.47L104.764 137.006L104.853 136.984L105.311 136.792L105.163 137.39L105.207 137.567L105.333 137.722C105.274 137.737 105.252 137.774 105.266 137.84L105.288 137.936L105.48 137.892C105.761 137.648 105.879 137.427 105.835 137.227C106.138 137.279 106.337 137.301 106.441 137.272L106.463 137.368C106.278 137.412 106.182 137.56 106.167 137.811L106.189 137.907L106.293 137.885C107.829 136.208 111.596 130.47 114.616 126.577C114.52 126.157 116.094 125.573 119.343 124.82L119.446 124.798C119.565 125.307 119.314 126.541 118.693 128.498C118.294 129.679 118.102 130.329 118.132 130.433C117.615 132.006 117.371 132.855 117.401 132.988L116.249 136.762C115.503 138.697 114.934 140.728 114.535 142.87C114.602 142.855 114.705 142.863 114.853 142.9L115.015 142.759C115.03 142.826 115.074 142.848 115.141 142.833L115.074 142.56L115.577 142.545C115.724 142.508 115.85 142.323 115.953 141.984C115.931 141.474 116.034 141.201 116.263 141.142C116.573 139.931 116.766 139.325 116.832 139.303C117.12 138.099 117.334 137.412 117.475 137.242C117.91 135.676 118.228 134.871 118.435 134.82L118.479 135.012L118.161 135.832C117.607 138.291 117.046 140.233 116.478 141.659L116.64 142.368L116.743 142.346C118.117 139.391 120.096 133.542 122.674 124.798C122.748 124.029 123.117 123.431 123.774 123.01L123.627 122.855L123.604 122.774C123.9 122.707 124.107 122.589 124.225 122.427C124.21 122.36 123.952 122.264 123.449 122.131L124.735 116.622C125.015 116.371 125.178 116.238 125.229 116.238L125.252 116.518C125.185 116.526 125.082 116.563 124.963 116.644L125.207 116.991C125.65 116.511 126.13 116.097 126.655 115.75C126.921 115.824 127.053 115.913 127.068 116.001L127.26 115.987C128.723 114.916 130.155 114.148 131.566 113.682L131.581 113.867C131.322 114.258 131.145 114.458 131.049 114.465C131.064 114.598 131.101 114.716 131.167 114.82C131.189 115.063 130.554 116.688 129.254 119.701C126.286 126.681 123.796 131.843 121.773 135.196C121.78 135.263 121.825 135.351 121.906 135.47C122.401 135.351 122.718 135.226 122.844 135.108L122.932 135.1L122.947 135.285L123.154 135.27L123.339 135.174C123.346 135.226 123.412 135.248 123.538 135.241L123.553 135.44C123.568 135.617 123.464 135.898 123.235 136.282C123.021 136.511 122.8 136.991 122.563 137.722L122.57 137.818L122.763 137.803C123.568 136.902 124.181 136.016 124.602 135.145C126.958 134.45 128.752 133.778 129.993 133.114C131.256 133.003 132.209 132.678 132.859 132.131L132.851 132.035L132.371 132.176L132.268 132.183L132.26 132.087C133.176 131.954 133.819 131.747 134.166 131.474C135.953 130.1 137.305 129.118 138.22 128.542C141.071 126.467 142.401 124.473 142.238 122.56ZM141.751 122.685L141.817 123.431C141.729 123.616 141.633 123.712 141.544 123.719L141.433 122.449C141.64 122.523 141.743 122.597 141.751 122.685ZM85.8275 116.674L85.7021 116.681L85.6799 116.452L86.1894 116.408L86.1969 116.526C86.1156 116.533 85.99 116.577 85.8275 116.674ZM83.3386 141.57C83.0433 141.437 82.7773 141.385 82.5484 141.408L82.5189 141.046C82.5041 140.905 82.5853 140.809 82.7627 140.772C82.925 140.758 83.0211 140.876 83.0359 141.112C83.4642 140.588 83.7006 140.322 83.7449 140.315L84.0181 140.425C83.9295 141.164 83.7006 141.541 83.3386 141.57ZM109.934 113.749C109.808 113.764 109.557 113.372 109.195 112.597L109.173 112.368C109.41 112.346 109.653 112.73 109.912 113.52L109.934 113.749ZM109.579 110.994L109.476 111.238L105.864 109.731C108.272 109.812 109.513 110.233 109.579 110.994ZM94.3283 124.089L93.8187 124.133L93.7967 123.904L94.3062 123.859L94.3283 124.089ZM93.9146 116.223L94.0402 116.216L94.0699 116.577C93.9517 116.585 93.7967 116.762 93.6045 117.102L93.5824 116.851C93.8113 116.577 93.9295 116.371 93.9146 116.223ZM92.8437 118.749L92.8881 119.229L92.7627 119.236L92.7183 118.756L92.8437 118.749ZM92.2826 119.65L92.5263 119.628C92.5041 120.026 92.3933 120.241 92.1939 120.255L92.0683 120.263C92.2234 119.997 92.2972 119.79 92.2826 119.65ZM91.8615 120.905L92.0019 120.891L92.0092 121.009L91.7802 121.393L91.5365 121.415L91.5293 121.297C91.773 121.275 91.8838 121.149 91.8615 120.905ZM91.448 122.035L91.3742 122.641L91.2486 122.648L91.1969 122.05L91.448 122.035ZM87.3047 133.815C87.1422 134.642 86.965 135.063 86.7802 135.078L86.773 134.96C86.7287 134.554 86.9058 134.17 87.3047 133.815ZM86.5439 135.462L86.5513 135.58C86.5662 135.743 86.4924 135.839 86.3299 135.846L86.3224 135.728C86.3076 135.588 86.3814 135.499 86.5439 135.462ZM86.3224 138.882L86.7064 138.845L86.7213 138.978C86.6252 138.985 86.4996 139.037 86.3445 139.125L86.1008 139.148C86.0861 139.022 86.1674 138.926 86.3224 138.882ZM97.2529 135.507C95.0965 136.57 93.8261 137.294 93.4494 137.67C91.1156 138.483 89.956 138.985 89.9783 139.184C87.9029 140.004 86.5365 140.61 85.8793 140.987C85.7242 141.001 85.5027 140.942 85.2072 140.809C85.1703 140.388 85.3623 140.049 85.7685 139.775C86.1304 139.746 86.4775 139.798 86.8099 139.938C87.1939 139.738 87.866 139.517 88.8187 139.281L88.7967 139.029L88.0285 139.096C88.1244 138.963 88.8631 138.616 90.2515 138.055L90.6355 138.018L90.6429 138.136C89.9857 138.195 89.6238 138.387 89.5426 138.734C89.5572 138.889 89.6459 138.956 89.8084 138.941C90.3033 138.631 90.5469 138.446 90.5396 138.394C91.4775 138.217 94.0699 136.858 98.3166 134.325L98.3386 134.554C98.3461 134.665 97.9842 134.975 97.2529 135.507ZM90.739 137.648C91.3594 137.597 91.8912 137.346 92.3342 136.91C92.5115 136.895 92.6076 136.961 92.6148 137.117C92.3121 137.146 91.7287 137.397 90.8793 137.885L90.7537 137.892L90.739 137.648ZM101.249 129.576L97.9916 132.161C95.5691 133.749 94.2693 134.546 94.0771 134.561C90.222 136.681 87.8217 137.781 86.8912 137.863L86.7508 137.877C86.8689 137.442 88.5824 133.933 91.9058 127.331C93.3681 127.205 95.6724 126.526 98.8113 125.285L99.5795 125.218C101.167 125.078 102.356 125.388 103.139 126.127L103.184 126.607C102.6 128.298 101.95 129.288 101.249 129.576ZM94.8822 125.994L95.4066 125.95L95.414 126.068L94.8896 126.112L94.8822 125.994ZM102.246 124.746L102.63 124.709C102.984 124.879 103.169 125.026 103.184 125.159L103.191 125.278C102.851 125.307 102.534 125.13 102.246 124.746ZM103.287 118.815C102.947 119.221 102.017 119.916 100.495 120.891C99.9929 120.935 98.1244 121.659 94.8896 123.077C94.7279 123.003 94.5497 122.972 94.3726 122.988L94.3506 122.759C94.3136 122.294 94.5203 121.71 94.9783 121.001C95.2293 119.672 95.5027 118.911 95.8054 118.727L98.5011 112.663C98.4717 112.286 99.0476 111.998 100.229 111.799L100.613 111.762L100.643 112.109C101.803 111.932 102.526 111.829 102.807 111.806C104.949 111.622 106.064 112.058 106.153 113.099L106.396 113.077L106.345 112.464L106.611 112.442C107.238 112.789 107.578 113.21 107.622 113.704C107.652 114.044 107.467 114.465 107.076 114.967C106.913 114.982 106.817 114.864 106.803 114.628L106.536 114.65L106.478 115.388C105.392 117.013 104.602 117.848 104.114 117.892C103.671 118.505 103.398 118.808 103.287 118.815ZM104.941 123.062C104.72 122.914 104.543 122.848 104.41 122.855L104.38 122.493L104.624 122.471L105.163 122.789C105.185 122.958 105.111 123.047 104.941 123.062ZM106.655 125.093C106.891 125.189 107.031 125.292 107.061 125.388L106.943 125.418L106.95 125.425C106.928 125.425 106.898 125.433 106.876 125.44L106.699 125.58L106.655 125.093ZM106.817 126.112L106.795 126.016L107.105 125.942L107.128 126.038L106.817 126.112ZM107.563 126.947C107.881 126.895 108.036 126.873 108.627 126.74L108.649 126.836L107.526 127.094C107.541 127.043 107.556 126.991 107.563 126.947ZM108.656 127.412C108.184 127.456 108.287 127.397 107.534 127.567L107.511 127.471L108.457 127.168L108.907 127.065L108.952 127.242C108.745 127.286 108.893 127.286 108.656 127.412ZM109.653 127.176C109.543 127.205 109.454 127.154 109.402 127.028L109.69 126.961C109.816 126.932 109.897 126.984 109.927 127.109L109.653 127.176ZM112.356 124.266L112.334 124.17L112.8 124.059L112.844 124.236L112.356 124.266ZM115.244 141.976C115.274 141.843 115.281 141.747 115.266 141.681L115.37 141.659C115.495 141.629 115.569 141.674 115.599 141.792L115.621 141.888L115.244 141.976ZM117.268 125.026L117.061 124.99C116.729 125.123 116.448 125.218 116.219 125.27L116.027 125.315C115.916 125.344 115.828 125.3 115.783 125.182L117.135 124.871L117.578 124.665L117.726 124.834C117.512 124.879 117.356 124.945 117.268 125.026ZM118.309 124.694L118.287 124.598C118.353 124.583 118.442 124.532 118.538 124.436L119.498 124.214L119.52 124.31C119.011 124.436 118.604 124.561 118.309 124.694ZM118.457 122.752C118.39 122.767 118.302 122.825 118.191 122.914C118.176 122.848 118.043 122.848 117.792 122.907C117.748 122.722 118.457 122.464 119.927 122.124L120.133 122.08L120.178 122.257C119.144 122.56 118.568 122.73 118.457 122.752ZM121.042 119.96C120.938 121.134 120.525 121.799 119.794 121.969L119.771 121.873L119.121 122.124L118.834 122.191C118.686 122.227 118.553 122.22 118.435 122.183L118.376 121.925C118.353 121.829 119.291 120.529 121.197 118.032L121.418 118.069C121.5 118.409 121.374 119.037 121.042 119.96ZM125.613 116.046L125.525 116.053L125.51 115.868L125.894 115.832L125.901 115.927C125.835 115.942 125.739 115.979 125.613 116.046ZM123.73 134.96C123.509 134.857 123.309 134.812 123.139 134.827L123.117 134.546C123.11 134.45 123.169 134.384 123.294 134.347C123.42 134.332 123.494 134.421 123.509 134.613C123.826 134.207 124.003 134 124.04 134L124.24 134.081C124.166 134.642 123.996 134.938 123.73 134.96ZM143.922 113.837C143.826 113.845 143.641 113.549 143.353 112.951L143.339 112.767C143.523 112.752 143.715 113.04 143.907 113.631L143.922 113.837ZM143.656 111.725L143.568 111.917L140.835 110.772C142.659 110.832 143.604 111.149 143.656 111.725ZM132.068 121.674L131.684 121.71L131.67 121.526L132.053 121.489L132.068 121.674ZM131.751 115.699L131.854 115.691L131.876 115.972C131.78 115.979 131.662 116.112 131.522 116.371L131.507 116.186C131.677 115.972 131.758 115.809 131.751 115.699ZM130.946 117.619L130.975 117.981L130.872 117.988L130.842 117.626L130.946 117.619ZM130.51 118.306L130.702 118.291C130.68 118.601 130.599 118.764 130.458 118.778L130.355 118.786C130.466 118.579 130.517 118.417 130.51 118.306ZM130.2 119.251L130.288 119.244L130.296 119.34L130.126 119.635L129.934 119.65L129.927 119.554C130.126 119.539 130.215 119.436 130.2 119.251ZM129.89 120.108L129.823 120.58L129.735 120.588L129.698 120.123L129.89 120.108ZM126.736 129.066C126.611 129.687 126.478 130.004 126.337 130.019L126.33 129.938C126.308 129.628 126.441 129.332 126.736 129.066ZM126.153 130.315L126.16 130.396C126.175 130.529 126.116 130.602 125.983 130.61L125.975 130.514C125.968 130.418 126.027 130.351 126.153 130.315ZM125.99 132.914L126.286 132.892L126.293 132.988C126.226 132.995 126.123 133.032 126.005 133.099L125.813 133.114C125.805 133.01 125.864 132.944 125.99 132.914ZM134.284 130.351C132.659 131.157 131.692 131.703 131.389 131.984C129.616 132.604 128.737 132.988 128.752 133.143C127.179 133.771 126.145 134.221 125.658 134.509C125.54 134.517 125.37 134.473 125.148 134.369C125.119 134.052 125.266 133.793 125.577 133.601C125.857 133.579 126.123 133.616 126.367 133.719C126.662 133.572 127.172 133.409 127.895 133.224L127.881 133.04L127.283 133.092C127.356 132.988 127.925 132.722 128.981 132.294L129.277 132.272L129.284 132.353C128.782 132.397 128.501 132.545 128.442 132.811C128.449 132.929 128.523 132.988 128.649 132.973C129.018 132.73 129.195 132.589 129.195 132.545C129.904 132.419 131.869 131.385 135.096 129.45L135.111 129.635C135.111 129.709 134.838 129.945 134.284 130.351ZM129.336 131.976C129.816 131.932 130.222 131.747 130.562 131.422C130.687 131.415 130.761 131.467 130.769 131.585C130.547 131.607 130.111 131.792 129.454 132.146L129.351 132.153L129.336 131.976ZM137.327 125.839L134.868 127.818C133.028 129.022 132.031 129.628 131.876 129.642C128.952 131.252 127.135 132.087 126.418 132.146L126.315 132.153C126.404 131.821 127.711 129.155 130.237 124.148C131.337 124.052 133.08 123.527 135.473 122.582L136.071 122.53C137.275 122.427 138.176 122.663 138.767 123.232L138.797 123.594C138.346 124.864 137.859 125.61 137.327 125.839ZM132.497 123.121L132.881 123.084L132.888 123.18L132.504 123.217L132.497 123.121ZM138.087 122.168L138.383 122.146C138.656 122.279 138.797 122.397 138.804 122.493L138.811 122.575C138.553 122.597 138.309 122.464 138.087 122.168ZM138.863 117.67C138.604 117.981 137.903 118.512 136.758 119.251C136.374 119.288 134.956 119.834 132.504 120.898C132.386 120.854 132.253 120.839 132.113 120.846L132.098 120.662C132.068 120.307 132.223 119.864 132.563 119.325C132.755 118.306 132.969 117.737 133.191 117.604L135.252 112.995C135.229 112.722 135.665 112.501 136.551 112.331L136.847 112.309L136.869 112.589C137.74 112.449 138.287 112.368 138.509 112.346C140.133 112.205 140.983 112.53 141.049 113.328L141.241 113.313L141.204 112.87L141.396 112.855C141.869 113.114 142.12 113.424 142.15 113.793C142.172 114.059 142.039 114.384 141.758 114.761C141.633 114.775 141.559 114.687 141.544 114.495L141.352 114.509L141.293 115.063C140.473 116.312 139.875 116.954 139.498 116.984C139.166 117.434 138.959 117.663 138.863 117.67ZM139.727 120.743L139.705 120.462L139.897 120.448L140.311 120.699C140.318 120.817 140.259 120.883 140.133 120.898C139.956 120.787 139.823 120.735 139.727 120.743ZM105.347 138.682L105.155 138.727L104.993 138.867C105.023 138.985 105.096 139.029 105.222 139C105.347 138.97 105.399 138.897 105.37 138.778L105.347 138.682ZM104.616 137.227L104.638 137.323C104.764 137.294 104.816 137.22 104.786 137.102L104.764 137.006C104.646 137.035 104.594 137.109 104.616 137.227ZM109.845 127.405L109.986 127.316C109.956 127.316 109.934 127.308 109.912 127.301C109.86 127.316 109.838 127.353 109.845 127.405ZM109.816 124.857L110.037 124.805L109.993 124.613L109.771 124.665L109.816 124.857ZM162.009 132.316L161.507 132.257L161.418 132.449L161.426 132.545L164.417 132.294L164.402 132.109L162.009 132.316ZM164.742 132.087L164.757 132.272H164.786L164.771 132.087H164.742ZM177.29 130.447L177.305 130.632L177.63 130.691L177.615 130.507L177.29 130.447ZM176.832 130.484C174.587 130.987 174.306 130.898 173.834 130.935L173.848 131.119L174.055 131.105L174.166 131.097L174.136 131.075L174.38 130.979C176.603 130.735 176.861 130.824 176.839 130.573L176.832 130.484ZM163.353 127.22L163.154 127.154C162.992 127.589 162.91 127.848 162.918 127.922L162.925 128.003C163.08 127.995 163.22 127.73 163.353 127.22ZM160.65 125.765L160.643 125.669L160.54 125.676L160.355 125.795L160.458 125.972C160.599 125.957 160.665 125.891 160.65 125.765ZM166.522 131.836L166.507 131.651L166.448 131.659L166.463 131.843L166.522 131.836ZM178.708 129.089L178.848 129.074C178.929 129.066 178.966 129 178.959 128.882L178.878 128.704C178.368 128.749 178.132 128.771 177.718 129L177.711 128.904L177.098 128.963C177.083 128.778 177.031 128.682 176.95 128.69L176.633 128.719C176.263 128.749 176.086 128.734 175.901 128.874C175.894 128.808 175.872 128.778 175.835 128.778L175.48 128.808L175.274 128.926C175.266 128.859 175.244 128.83 175.207 128.83L175.082 128.941L175.074 128.845L174.579 128.808L174.461 128.815L174.476 129L174.727 129.066L174.963 129.052C175.045 129.103 175.133 129.118 175.237 129.111L175.444 129.007L175.451 129.089C174.291 129.376 174.299 129.325 173.501 129.458C173.412 129.399 173.346 129.369 173.302 129.376L173.287 129.391C173.198 129.384 173.147 129.325 173.139 129.229L173.553 129.177C173.582 129.177 173.604 129.207 173.833 129.251C174.166 129.089 174.181 129.022 174.358 129.007L174.343 128.823C173.206 129.044 173.664 128.896 172.238 129.022L172.172 129.029L172.157 128.845C173.989 128.623 173.376 128.749 174.003 128.572C174.011 128.638 174.033 128.667 174.07 128.667C174.137 128.599 174.226 128.555 174.321 128.542L174.446 128.535C175.089 128.483 175.303 128.608 176.574 128.254L176.581 128.335L176.788 128.232L176.98 128.217C176.965 128.032 177.246 128.003 177.342 127.995L177.327 127.796C175.096 128.247 174.513 128.121 173.893 128.298L173.885 128.217C173.302 128.32 173.28 128.276 173.132 128.283C173.087 128.291 173.021 128.328 172.947 128.402C172.94 128.335 172.918 128.306 172.873 128.306C172.851 128.306 172.844 128.313 172.836 128.313L170.946 128.623C170.938 128.572 170.916 128.542 170.872 128.549C169.89 128.756 170.155 128.793 168.841 128.911C168.782 128.919 168.701 128.948 168.597 129.015C168.59 128.963 168.56 128.933 168.494 128.941L167.689 129.007L167.15 129.14C167.142 129.089 167.113 129.059 167.046 129.066C166.743 129.148 166.478 129.199 166.263 129.214H166.249C166.116 129.229 166.315 129.177 166.212 129.133L166.049 129.229C165.813 129.251 165.938 129.214 165.126 129.221C163.701 129.399 163.856 129.421 163.701 129.428L163.169 129.391C163.176 129.443 163.147 129.48 163.087 129.48C162.482 129.399 162.172 129.303 162.164 129.192C162.246 128.616 162.386 128.32 162.585 128.306L162.689 128.298L162.6 128.49L162.703 128.483C162.895 128.379 162.984 128.283 162.977 128.195L162.962 127.995L162.77 128.01L162.755 127.825C162.74 127.685 162.763 127.56 162.814 127.456L163.25 126.755L163.265 126.939L163.472 126.925L163.457 126.74L163.339 126.57C163.494 126.437 163.612 126.363 163.708 126.356L163.701 126.26L163.42 126.282L163.398 126.001C163.959 124.834 164.225 124.155 164.21 123.963L164.41 124.044C164.535 124.037 164.594 123.963 164.587 123.83L164.395 123.845L164.387 123.764C164.374 123.629 164.399 123.493 164.461 123.372C164.764 123.055 164.904 122.737 164.875 122.405C164.934 122.397 164.963 122.427 164.971 122.493C165.229 122.346 165.429 121.954 165.577 121.304C166.034 120.477 166.684 118.823 167.534 116.349C169.159 111.976 169.092 111.511 169.321 110.477L169.129 110.492C169.144 110.625 169.114 110.75 169.055 110.868C168.922 110.817 168.819 110.787 168.745 110.795L168.737 110.713C168.708 110.337 168.863 109.886 169.218 109.354L169.306 109.347L169.469 109.982L169.661 109.967C169.653 109.923 169.705 109.672 169.808 109.207C169.801 109.111 169.727 109.052 169.579 109.044L169.395 109.162C169.38 109.029 169.387 108.682 169.41 108.128L169.313 108.136C169.151 107.973 169.07 107.84 169.062 107.73L168.006 107.833C167.999 107.759 167.962 107.648 167.888 107.508C167.881 107.412 168.117 107.316 168.604 107.22L168.819 107.301L169.018 107.183C169.026 107.25 169.062 107.279 169.136 107.272L169.336 107.153C169.343 107.22 169.38 107.25 169.454 107.242L169.55 107.235L169.535 107.021C169.387 107.035 168.996 107.035 168.376 107.013L168.176 107.146L168.169 107.028C163.213 107.434 160.399 107.663 159.727 107.73C159.638 107.737 159.291 107.73 158.678 107.715C158.686 107.796 158.612 107.84 158.464 107.855L158.25 107.759L157.526 107.944C157.356 107.958 157.068 107.951 156.67 107.907C156.559 107.995 156.426 108.047 156.263 108.062C156.175 108.069 157.32 108.003 158.383 107.929C158.272 108.018 158.102 108.069 157.866 108.092C157.703 108.106 157.563 108.084 157.445 108.018C157.283 108.092 156.758 108.21 155.879 108.387L155.665 108.306L152.209 108.837C152.076 108.771 151.921 108.749 151.743 108.764C151.559 108.778 151.249 108.845 150.82 108.963L149.151 109.657L149.277 109.864C149.358 109.857 149.476 109.812 149.616 109.731L150.207 109.783L150.133 110.337C149.587 110.58 149.269 110.942 149.181 111.4C148.361 111.762 147.955 112.021 147.955 112.176L147.962 112.272L148.087 112.264L148.309 112.146L148.568 112.456L148.604 112.885C148.619 113.018 147.238 115.92 144.476 121.592C142.083 127.058 140.828 130.049 140.709 130.588C139.89 130.817 139.417 131.149 139.277 131.592C139.291 131.733 139.535 131.829 140.008 131.866L140.03 132.08L139.816 132.434L139.853 132.863C139.875 133.084 140.473 133.254 141.647 133.372C141.64 133.298 141.677 133.254 141.758 133.247C141.78 133.512 141.706 134.029 141.537 134.798L141.662 134.79C142.15 134.125 142.378 133.667 142.356 133.417L142.46 133.409C142.578 133.402 142.703 133.535 142.851 133.823C142.703 133.882 142.186 135.056 141.3 137.353L141.426 137.56L141.551 137.552C142.637 134.805 143.317 133.283 143.597 132.995C145.023 132.87 147.489 132.619 150.99 132.242L151.212 132.109C151.219 132.183 151.263 132.22 151.345 132.213L151.574 132.19L151.795 132.058C151.803 132.131 151.847 132.168 151.928 132.161L154.579 131.932C155.281 131.873 155.613 131.659 155.584 131.297C155.577 131.201 155.99 131.09 156.825 130.972C156.906 130.964 157.024 130.987 157.187 131.038C157.179 130.972 157.6 130.905 158.442 130.832C158.464 130.388 158.604 130.152 158.856 130.13L158.834 129.916C158.597 129.938 158.331 129.997 158.021 130.1C157.467 130.071 157.113 130.026 156.965 129.975C156.817 130.056 156.706 130.1 156.625 130.108L154.779 130.167L154.557 130.285C154.55 130.218 154.506 130.189 154.424 130.196L154.321 130.204L154.085 130.322C154.077 130.255 153.885 130.204 153.501 130.152L153.265 130.292L152.807 130.329L152.8 130.211C155.178 129.953 156.352 129.628 156.322 129.244C156.478 129.229 156.559 129.303 156.573 129.458L157.268 129.281L157.246 129.066L151.551 129.221C151.559 129.295 151.522 129.34 151.441 129.347L150.746 129.288C150.569 129.303 150.421 129.354 150.303 129.443L150.045 129.347C149.328 129.406 148.796 129.495 148.442 129.606C147.955 129.569 147.415 129.576 146.817 129.628L145.54 129.738L144.949 129.672C144.919 129.295 145.65 127.442 147.157 124.118C147.593 122.995 147.992 122.294 148.376 122.028C148.457 122.021 148.575 122.05 148.737 122.117L149.646 121.806L150.111 121.88C150.894 121.814 151.803 121.592 152.844 121.208C153.102 121.186 153.294 121.201 153.435 121.26L154.129 121.097L156.197 120.92C157.076 120.846 158.028 120.654 159.062 120.337L159.04 120.123C158.656 120.159 158.457 120.093 158.442 119.938C158.42 119.65 158.139 119.532 157.6 119.576L157.578 119.362L158.147 119.199L159.638 119.074L159.616 118.86C159.557 118.867 159.254 118.86 158.693 118.837L158.671 118.608L159.247 118.557C159.402 118.542 159.469 118.468 159.454 118.32C158.678 118.342 158.287 118.306 158.28 118.202C152.873 118.468 150.163 118.52 150.148 118.35C150.067 118.357 149.956 118.409 149.808 118.498L149.668 118.276C151.101 115.233 151.943 113.697 152.187 113.675C152.194 113.793 152.135 113.985 152.009 114.244L152.017 114.34L152.246 114.317C152.814 112.958 153.294 112.257 153.693 112.227C155.392 112.08 153.457 111.969 157.091 111.4C157.238 111.467 157.342 111.496 157.415 111.489C158.841 111.201 160.828 110.898 163.376 110.588L163.361 110.374L162.002 110.499L161.987 110.285C162.15 110.27 162.283 110.218 162.393 110.13L162.401 110.248C162.475 110.241 162.578 110.189 162.711 110.1C162.947 110.078 163.124 110.1 163.25 110.167C163.723 110.041 164.107 109.967 164.387 109.938L165.237 109.857C165.444 109.724 165.54 109.606 165.532 109.495L165.525 109.399C165.311 109.421 165.067 109.406 164.779 109.354C164.771 109.236 164.83 109.155 164.971 109.118L166.551 108.97L167.275 108.786C167.283 108.867 167.32 108.896 167.378 108.896C167.452 108.889 167.556 108.837 167.689 108.749C167.726 108.756 167.77 108.756 167.807 108.764C167.711 108.963 167.6 109.251 167.489 109.628L167.283 109.642C167.268 109.502 167.231 109.376 167.164 109.266L167.061 109.273C165.141 114.62 164.284 117.109 162.512 121.216C162.187 122.264 161.913 122.848 161.677 122.973C161.684 123.092 161.758 123.15 161.884 123.136C161.928 123.653 161.81 124.162 161.522 124.665C160.702 127.028 160.155 128.32 159.875 128.557L160.06 129.672C160.067 129.79 160.008 129.857 159.882 129.871L159.69 129.886C159.661 129.576 159.55 129.428 159.351 129.45L159.247 129.458C158.996 129.849 158.804 130.3 158.678 130.824L158.87 130.809C159.129 130.64 159.247 130.44 159.225 130.211L159.609 130.174L159.83 130.255C159.653 130.536 159.572 130.758 159.587 130.927L159.69 131.105L159.439 131.696L159.446 131.792C159.668 131.769 159.912 131.843 160.17 131.998C160.347 131.984 160.54 131.902 160.754 131.762C160.975 131.74 161.803 131.733 163.228 131.733L163.944 131.489C164.816 131.481 164.956 131.504 165.709 131.437L166.02 131.408L166.182 131.297L166.189 131.393C166.98 131.326 167.031 131.378 167.652 131.452L167.659 131.548L167.223 131.585L167.238 131.769C167.371 131.755 167.489 131.718 167.585 131.636C167.696 131.629 167.762 131.688 167.77 131.821C167.593 131.836 167.393 131.88 167.172 131.954L166.98 131.888C166.677 131.969 166.743 131.991 166.536 132.006L166.234 131.947C166.241 131.998 166.212 132.035 166.16 132.035C166.167 132.153 166.234 132.213 166.345 132.205L166.655 132.176L168.272 132.035L168.885 131.902C168.893 131.954 168.915 131.984 168.966 131.976L169.262 131.866L169.816 131.821C170.244 131.784 170.237 131.755 171.167 131.607C171.16 131.548 171.182 131.526 171.226 131.518L171.234 131.6C172.748 131.341 172.844 131.326 173.087 131.245L173.11 131.289C173.486 131.201 173.272 131.223 173.376 131.149C173.383 131.216 173.405 131.245 173.442 131.245L173.708 131.223L173.693 131.024L173.154 131.016L173.147 131.001C173.124 131.009 173.11 131.009 173.087 131.016H173.014V131.031C172.652 131.105 172.644 131.053 172.408 131.075L171.056 131.149L171.049 131.053L171.803 130.95L172.076 130.927L172.231 130.817L172.238 130.913C173.302 130.824 173.678 131.09 178.597 130.041C178.863 130.019 178.841 129.798 179.011 129.34C178.921 129.346 178.831 129.325 178.752 129.281C178.346 129.436 178.132 129.362 177.349 129.487C177.283 129.495 177.231 129.436 177.209 129.317L177.201 129.236L177.954 129.258C178.095 129.244 178.368 129.221 178.774 128.992C178.774 129.059 178.619 129.096 178.708 129.089H178.708ZM142.342 129.672L141.995 129.701C141.98 129.561 142.164 129.029 142.548 128.121L142.777 128.099C142.785 128.313 142.644 128.837 142.342 129.672ZM142.763 127.988L142.755 127.892C142.748 127.774 142.822 127.693 142.984 127.656L142.992 127.752C142.999 127.892 142.925 127.973 142.763 127.988ZM147.378 131.555L147.386 131.651L146.81 131.703L146.803 131.607L147.378 131.555ZM146.684 131.496C146.692 131.614 146.514 131.747 146.13 131.88L145.421 131.829L145.192 131.851L145.17 131.636L146.684 131.496ZM151.352 110.012L151.005 110.041L150.997 109.923C150.99 109.805 151.057 109.724 151.204 109.687L151.33 109.679L151.566 109.775C151.573 109.916 151.507 109.997 151.352 110.012ZM156.633 108.978L156.743 108.97L156.758 109.184L156.441 109.214C156.433 109.096 156.492 109.015 156.633 108.978ZM155.303 109.443L154.779 109.384L154.771 109.288C155.458 109.229 155.687 109.155 156.108 109.037C156.116 109.118 156.189 109.148 156.322 109.133L156.337 109.347L156.13 109.369C155.968 109.384 155.828 109.362 155.709 109.295C155.584 109.376 155.451 109.428 155.303 109.443ZM155.961 111.356L155.953 111.26L156.803 111.179L156.81 111.275L155.961 111.356ZM156.869 110.617L156.861 110.499L157.275 110.462L157.283 110.58L156.869 110.617ZM156.965 109.17L156.854 109.177L156.95 108.948L157.895 108.859L157.903 108.978C157.659 109 157.342 109.066 156.965 109.17ZM157.445 111.208L157.43 110.994L157.844 110.957C157.984 110.942 158.058 111.009 158.065 111.157L157.445 111.208ZM159.949 107.796L159.417 107.944L159.321 107.951C159.07 107.973 158.745 107.966 158.361 107.929C159.048 107.885 159.705 107.833 159.949 107.796ZM159.38 110.159L159.387 110.255L158.656 110.322L158.649 110.226L159.38 110.159ZM160.577 110.728C160.569 110.64 160.429 110.58 160.141 110.551L159.41 110.758L158.848 110.78C158.723 110.691 158.656 110.632 158.649 110.588L159.299 110.625L160.761 110.388L161.507 110.418L161.514 110.536C161.145 110.573 160.835 110.64 160.577 110.728ZM168.102 108.786C168.191 108.793 168.25 108.793 168.272 108.793C168.531 108.542 168.819 108.342 169.151 108.202C168.885 109.369 168.472 110.233 167.903 110.795L167.489 110.543C167.837 109.665 168.043 109.081 168.102 108.786ZM166.832 110.964L166.935 110.957C166.795 111.223 166.67 111.363 166.566 111.371L166.544 111.09C166.611 111.09 166.706 111.046 166.832 110.964ZM166.012 112.922C166.212 112.124 166.404 111.674 166.581 111.555L166.588 111.651C166.485 112.39 166.322 112.781 166.108 112.811L166.145 113.276C165.968 113.527 165.887 113.719 165.894 113.867L165.791 113.874L165.732 113.232C165.85 113.217 165.946 113.114 166.012 112.922ZM165.695 113.985C165.702 114.096 165.628 114.354 165.48 114.753L165.377 114.761L165.355 114.48C165.495 114.155 165.613 113.992 165.695 113.985H165.695ZM159.735 131.282L159.727 131.201L159.919 131.186L159.941 131.467C159.838 131.474 159.764 131.415 159.735 131.282ZM168.25 131.504C168.243 131.437 168.213 131.408 168.147 131.415L167.667 131.459L167.659 131.363H167.703L168.841 131.267L168.848 131.363C168.516 131.378 168.317 131.43 168.25 131.504ZM167.681 131.267C167.726 131.289 167.703 131.312 167.681 131.326C167.659 131.319 167.63 131.297 167.681 131.267ZM167.74 129.938L167.105 129.99L167.098 129.893L167.674 129.842L168.176 129.716C168.184 129.775 168.213 129.798 168.28 129.79C168.878 129.687 168.819 129.657 169.107 129.635C169.203 129.628 169.262 129.687 169.269 129.805L167.74 129.938ZM169.963 129.746C169.609 129.709 169.587 129.679 169.336 129.701L169.328 129.62L169.897 129.569L169.904 129.65C169.845 129.657 170.06 129.672 169.963 129.746ZM170.008 129.642L170 129.561L170.311 129.532L170.318 129.613L170.008 129.642ZM170.695 129.583L170.687 129.502C170.739 129.495 170.813 129.458 170.909 129.384C171.064 129.369 171.145 129.473 171.16 129.591L170.695 129.583ZM171.574 129.473L171.566 129.376L171.943 129.347L171.95 129.443L171.574 129.473ZM172.098 129.428C172.091 129.317 172.135 129.251 172.231 129.236L172.356 129.399C172.349 129.347 172.371 129.317 172.415 129.31L172.511 129.487L172.098 129.428ZM179.365 128.572L179.373 128.564V128.557C179.373 128.557 179.365 128.564 179.365 128.572ZM179.498 128.475C179.557 128.439 179.587 128.402 179.446 128.38C179.38 128.453 179.52 128.475 179.373 128.483L179.38 128.549C179.395 128.535 179.432 128.512 179.461 128.49L179.38 128.557V128.564L179.225 128.764L179.535 128.653H179.572L179.557 128.468L179.498 128.475ZM180.037 128.897L179.978 128.904L179.993 129.089L180.429 129.052C180.421 128.933 180.133 128.897 180.037 128.897Z" fill="#F9DC3E"/>
<defs>
<filter id="filter0_d_33_2161" x="0.485107" y="0.890869" width="260" height="260" filterUnits="userSpaceOnUse" color-interpolation-filters="sRGB">
<feFlood flood-opacity="0" result="BackgroundImageFix"/>
<feColorMatrix in="SourceAlpha" type="matrix" values="0 0 0 0 0 0 0 0 0 0 0 0 0 0 0 0 0 0 127 0" result="hardAlpha"/>
<feOffset dy="4"/>
<feGaussianBlur stdDeviation="20"/>
<feComposite in2="hardAlpha" operator="out"/>
<feColorMatrix type="matrix" values="0 0 0 0 0.0367917 0 0 0 0 0.0348958 0 0 0 0 0.0484375 0 0 0 0.1 0"/>
<feBlend mode="normal" in2="BackgroundImageFix" result="effect1_dropShadow_33_2161"/>
<feBlend mode="normal" in="SourceGraphic" in2="effect1_dropShadow_33_2161" result="shape"/>
</filter>
</defs>
</svg>
