<svg width="261" height="261" viewBox="0 0 261 261" fill="none" xmlns="http://www.w3.org/2000/svg">
<g filter="url(#filter0_d_101_62)">
<rect x="40.209" y="36.1879" width="180" height="180" rx="32" fill="white"/>
<rect x="40.709" y="36.6879" width="179" height="179" rx="31.5" stroke="#D9D9D9"/>
</g>
<path d="M90.23 75.7821V129.864L130.485 152.811V137.213L103.555 121.861V97.7493L130.485 113.1V98.7291L90.23 75.7821Z" fill="#002A41"/>
<path d="M170.74 75.7821V129.864L130.485 152.811V137.213L157.415 121.861V97.7493L130.485 113.1V98.7291L170.74 75.7821H170.74Z" fill="#0071B5"/>
<path d="M90.23 175.782V121.7L130.485 98.7529V114.351L103.555 129.702V152.588L130.485 137.237V152.835L90.23 175.782Z" fill="#0071B5"/>
<path d="M170.74 175.782V121.7L130.485 98.7529V114.351L157.415 129.702V152.588L130.485 137.237V152.835L170.74 175.782Z" fill="#002A41"/>
<defs>
<filter id="filter0_d_101_62" x="0.208984" y="0.187866" width="260" height="260" filterUnits="userSpaceOnUse" color-interpolation-filters="sRGB">
<feFlood flood-opacity="0" result="BackgroundImageFix"/>
<feColorMatrix in="SourceAlpha" type="matrix" values="0 0 0 0 0 0 0 0 0 0 0 0 0 0 0 0 0 0 127 0" result="hardAlpha"/>
<feOffset dy="4"/>
<feGaussianBlur stdDeviation="20"/>
<feComposite in2="hardAlpha" operator="out"/>
<feColorMatrix type="matrix" values="0 0 0 0 0.0367917 0 0 0 0 0.0348958 0 0 0 0 0.0484375 0 0 0 0.1 0"/>
<feBlend mode="normal" in2="BackgroundImageFix" result="effect1_dropShadow_101_62"/>
<feBlend mode="normal" in="SourceGraphic" in2="effect1_dropShadow_101_62" result="shape"/>
</filter>
</defs>
</svg>
