<svg width="261" height="261" viewBox="0 0 261 261" fill="none" xmlns="http://www.w3.org/2000/svg">
<g filter="url(#filter0_d_101_139)">
<rect x="40.485" y="36.1879" width="180" height="180" rx="32" fill="white"/>
<rect x="40.985" y="36.6879" width="179" height="179" rx="31.5" stroke="#D9D9D9"/>
</g>
<path d="M180.761 149.54V133.707C180.761 137.436 176.678 140.861 169.861 143.57L130.761 133.707V149.54L169.861 159.403C176.678 156.699 180.761 153.274 180.761 149.54Z" fill="#D32F2F"/>
<path d="M169.861 127.749C176.678 125.024 180.761 121.616 180.761 117.882V102.028C180.761 93.303 158.365 86.1989 130.761 86.1989C103.136 86.1989 80.761 93.2989 80.761 102.024V117.882C80.761 126.62 103.148 133.711 130.761 133.711V117.891L169.861 127.749ZM130.761 165.366V149.541C103.136 149.541 80.761 142.436 80.761 133.716V149.541C80.761 158.278 103.136 165.366 130.761 165.366Z" fill="#D32F2F"/>
<defs>
<filter id="filter0_d_101_139" x="0.484985" y="0.187866" width="260" height="260" filterUnits="userSpaceOnUse" color-interpolation-filters="sRGB">
<feFlood flood-opacity="0" result="BackgroundImageFix"/>
<feColorMatrix in="SourceAlpha" type="matrix" values="0 0 0 0 0 0 0 0 0 0 0 0 0 0 0 0 0 0 127 0" result="hardAlpha"/>
<feOffset dy="4"/>
<feGaussianBlur stdDeviation="20"/>
<feComposite in2="hardAlpha" operator="out"/>
<feColorMatrix type="matrix" values="0 0 0 0 0.0367917 0 0 0 0 0.0348958 0 0 0 0 0.0484375 0 0 0 0.1 0"/>
<feBlend mode="normal" in2="BackgroundImageFix" result="effect1_dropShadow_101_139"/>
<feBlend mode="normal" in="SourceGraphic" in2="effect1_dropShadow_101_139" result="shape"/>
</filter>
</defs>
</svg>
