<svg width="261" height="261" viewBox="0 0 261 261" fill="none" xmlns="http://www.w3.org/2000/svg">
<g filter="url(#filter0_d_33_2415)">
<rect x="40.5524" y="36.188" width="180" height="180" rx="32" fill="white"/>
<rect x="41.0524" y="36.688" width="179" height="179" rx="31.5" stroke="#D9D9D9"/>
</g>
<g clip-path="url(#clip0_33_2415)">
<path d="M180.77 133.575C180.527 131.193 178.797 130.131 177.174 130.131C176.43 130.131 175.838 130.343 175.611 130.434L175.292 130.571L175.019 130.768C174.64 131.056 173.972 131.451 173.38 131.663C173.35 131.178 173.365 130.556 173.441 130.04L173.456 129.949C173.896 125.761 173.016 123.318 170.846 122.696C170.482 122.589 170.103 122.544 169.723 122.544C168.403 122.544 167.235 123.181 166.476 123.727C165.839 122.923 164.777 122.468 163.441 122.468C161.454 122.468 159.86 123.394 159.284 124.881C159.223 125.032 159.147 125.26 159.056 125.563C157.888 122.984 155.505 121.998 153.29 121.998C151.196 121.998 149.163 122.817 148.404 123.394C148.374 123.424 148.328 123.439 148.283 123.485C146.295 124.896 144.747 126.671 143.655 128.811C143.123 126.959 141.955 125.23 139.861 123.925L139.831 123.894C139.77 123.864 139.725 123.834 139.664 123.803C141.712 120.161 143.533 115.336 142.441 110.739C141.287 105.837 138.404 105.109 136.781 105.109C136.113 105.109 135.43 105.23 134.732 105.473L134.687 105.488L134.641 105.503C131.591 106.702 130.256 108.508 129.968 108.933C129.664 109.388 126.326 114.456 125.522 121.876C125.431 122.696 125.34 123.545 125.249 124.395C124.778 123.727 124.004 123.121 122.775 122.741C122.396 122.62 122.001 122.574 121.607 122.574C119.923 122.574 118.557 123.606 117.829 124.289L117.813 124.274C117.176 123.333 116.159 122.772 115.036 122.726H114.763C112.973 122.726 111.547 123.515 110.5 124.41C109.832 123.242 108.603 122.514 107.161 122.514C107.04 122.514 106.934 122.514 106.827 122.529H106.585C104.597 122.529 103.034 123.47 102.397 125.032C102.351 125.154 102.29 125.305 102.23 125.503C100.667 123.561 98.6791 122.65 96.0085 122.65H95.7507C94.0814 122.68 89.9237 123.379 87.3744 129.114C86.9799 129.994 86.6764 130.89 86.4489 131.77C85.9921 131.559 85.495 131.45 84.9921 131.451C83.6568 131.451 82.6554 132.21 82.1699 132.923C81.7754 133.499 80.5157 135.548 81.1379 137.551C81.4719 138.628 82.2457 139.448 83.3382 139.872C84.2943 140.252 85.5081 140.616 86.4186 140.874C86.9799 142.149 87.9814 143.62 89.7567 144.971C91.0163 145.927 92.6246 146.412 94.5214 146.412C97.708 146.412 100.788 145.032 101.122 144.88L101.243 144.819L101.274 144.789C101.881 145.426 102.685 145.881 103.702 146.079C104.005 146.139 104.4 146.185 104.855 146.185C106.585 146.185 107.783 145.305 108.891 143.651C109.801 145.077 111.456 145.881 113.413 145.881H113.428C113.534 145.881 113.641 145.957 113.762 145.957C114.794 145.957 116.083 145.593 117.161 143.863C118.056 145.472 119.695 146.397 121.637 146.397C123.367 146.397 124.869 145.684 125.142 145.548L125.203 145.517C125.78 145.214 126.265 144.941 126.645 144.728C127.934 145.411 129.892 146.17 132.289 146.17C132.699 146.17 133.109 146.154 133.518 146.109L133.625 146.094L133.731 146.079C138.814 145.077 142.122 143.863 144.095 142.938C145.475 144.485 147.676 145.972 150.817 146.2C151.166 146.23 151.53 146.245 151.879 146.245C154.458 146.245 156.522 145.517 158.04 144.713C158.525 145.229 159.132 145.699 159.921 146.018C160.391 146.215 160.877 146.306 161.378 146.306C164.534 146.306 166.006 142.543 166.416 141.268L167.174 139.235C167.842 139.948 168.692 140.525 169.769 140.828C170.361 140.995 170.998 141.086 171.651 141.086C175.125 141.086 178.464 138.628 178.995 138.219C179.951 137.43 180.998 135.806 180.77 133.575Z" fill="white"/>
<path d="M148.936 134.604C148.936 134.604 148.496 133.056 150.135 130.067C151.759 127.093 153.034 128.716 153.034 128.716C153.034 128.716 154.429 130.234 152.836 132.494C151.243 134.771 148.936 134.604 148.936 134.604V134.604ZM136.418 136.758C134.552 141.644 130.015 139.657 130.015 139.657C130.015 139.657 129.499 137.912 130.971 133.01C132.443 128.124 135.902 130.036 135.902 130.036C135.902 130.036 138.284 131.872 136.418 136.758ZM133.034 116.288C133.034 116.288 135.857 108.929 136.539 112.51C137.222 116.091 130.622 126.743 130.622 126.743C130.682 124.346 133.034 116.289 133.034 116.289V116.288ZM92.6717 134.603C92.7929 129.869 95.8883 127.806 96.9658 128.837C98.0431 129.869 97.6486 132.1 95.6153 133.496C93.5972 134.892 92.6717 134.603 92.6717 134.603ZM178.192 133.83C178.04 132.236 176.599 132.828 176.599 132.828C176.599 132.828 174.292 134.619 172.259 134.421C170.241 134.209 170.878 129.687 170.878 129.687C170.878 129.687 171.318 125.53 170.119 125.181C168.921 124.831 167.449 126.258 167.449 126.258C167.449 126.258 165.613 128.291 164.748 130.871L164.505 130.947C164.505 130.947 164.778 126.41 164.459 125.378C164.217 124.862 162.032 124.907 161.683 125.818C161.318 126.728 159.573 133.086 159.452 135.757C159.452 135.757 156.038 138.655 153.049 139.141C150.059 139.611 149.346 137.744 149.346 137.744C149.346 137.744 157.464 135.484 157.176 129.004C156.903 122.525 150.636 124.922 149.923 125.454C149.24 125.97 145.583 128.17 144.506 134.285C144.475 134.497 144.4 135.408 144.4 135.408C144.4 135.408 141.258 137.517 139.514 138.078C139.514 138.078 144.4 129.854 138.436 126.106C135.735 124.482 133.581 127.897 133.581 127.897C133.581 127.897 141.653 118.914 139.863 111.311C139.013 107.7 137.207 107.306 135.538 107.897C133.019 108.899 132.063 110.355 132.063 110.355C132.063 110.355 128.801 115.09 128.042 122.13C127.283 129.171 126.176 137.669 126.176 137.669C126.176 137.669 124.628 139.186 123.202 139.262C121.775 139.338 122.412 135.013 122.412 135.013C122.412 135.013 123.52 128.412 123.444 127.305C123.369 126.197 123.293 125.59 121.972 125.196C120.667 124.801 119.226 126.47 119.226 126.47C119.226 126.47 115.448 132.191 115.129 133.071L114.932 133.435L114.734 133.192C114.734 133.192 117.405 125.393 114.856 125.287C112.307 125.165 110.638 128.063 110.638 128.063C110.638 128.063 107.739 132.919 107.618 133.466L107.421 133.223C107.421 133.223 108.619 127.578 108.377 126.182C108.134 124.786 106.829 125.074 106.829 125.074C106.829 125.074 105.16 124.877 104.72 125.954C104.28 127.032 102.687 134.148 102.489 136.409C102.489 136.409 98.3164 139.399 95.5698 139.429C92.8234 139.474 93.1117 137.684 93.1117 137.684C93.1117 137.684 103.172 134.239 100.425 127.441C99.1964 125.696 97.7549 125.15 95.7368 125.181C93.7036 125.226 91.3211 126.455 89.6823 130.112C88.9085 131.857 88.5898 133.511 88.5898 134.77C88.5898 134.77 86.7082 135.135 85.7524 134.33C84.7964 133.541 84.2501 134.33 84.2501 134.33C84.2501 134.33 82.581 136.713 84.2046 137.35C85.8282 137.987 88.347 138.579 88.347 138.579C88.5747 139.611 89.2575 141.295 91.2453 142.797C94.2194 145.058 99.9552 142.448 99.9552 142.448L102.307 141.052C102.307 141.052 102.383 143.162 104.098 143.48C105.812 143.799 106.525 143.45 109.5 136.227C111.245 132.525 111.366 132.722 111.366 132.722L111.563 132.676C111.563 132.676 110.213 139.747 110.729 141.659C111.245 143.571 113.505 143.374 113.505 143.374C113.505 143.374 114.734 143.814 115.736 140.309C116.738 136.804 118.634 133.147 118.634 133.147H118.877C118.877 133.147 118.042 140.188 119.317 142.494C120.592 144.8 123.884 143.177 123.884 143.177C123.884 143.177 126.191 141.963 126.555 141.599C126.555 141.599 129.286 143.905 133.156 143.48C141.79 141.781 144.855 139.474 144.855 139.474C144.855 139.474 146.342 143.222 150.924 143.571C156.174 143.966 159.042 140.658 159.042 140.658C159.042 140.658 158.997 142.797 160.833 143.556C162.669 144.315 163.898 140.309 163.898 140.309L166.963 132.1H167.236C167.236 132.1 167.388 137.35 170.423 138.23C173.473 139.095 177.403 136.06 177.403 136.06C177.403 136.06 178.359 135.423 178.192 133.83" fill="#E24B31"/>
</g>
<defs>
<filter id="filter0_d_33_2415" x="0.552368" y="0.187988" width="260" height="260" filterUnits="userSpaceOnUse" color-interpolation-filters="sRGB">
<feFlood flood-opacity="0" result="BackgroundImageFix"/>
<feColorMatrix in="SourceAlpha" type="matrix" values="0 0 0 0 0 0 0 0 0 0 0 0 0 0 0 0 0 0 127 0" result="hardAlpha"/>
<feOffset dy="4"/>
<feGaussianBlur stdDeviation="20"/>
<feComposite in2="hardAlpha" operator="out"/>
<feColorMatrix type="matrix" values="0 0 0 0 0.0367917 0 0 0 0 0.0348958 0 0 0 0 0.0484375 0 0 0 0.1 0"/>
<feBlend mode="normal" in2="BackgroundImageFix" result="effect1_dropShadow_33_2415"/>
<feBlend mode="normal" in="SourceGraphic" in2="effect1_dropShadow_33_2415" result="shape"/>
</filter>
<clipPath id="clip0_33_2415">
<rect width="100" height="41.6" fill="white" transform="translate(80.8284 104.982)"/>
</clipPath>
</defs>
</svg>
