<svg width="261" height="261" viewBox="0 0 261 261" fill="none" xmlns="http://www.w3.org/2000/svg">
<g filter="url(#filter0_d_22_675)">
<rect x="40.9329" y="36.4058" width="180" height="180" rx="32" fill="white"/>
<rect x="41.4329" y="36.9058" width="179" height="179" rx="31.5" stroke="#D9D9D9"/>
</g>
<path d="M180.866 128.185C180.866 120.279 178.822 112.853 175.237 106.399C190.515 71.823 158.868 76.8871 157.106 77.232C150.401 78.5441 144.198 80.6503 138.476 83.3207C137.633 83.273 136.783 83.2468 135.928 83.2468C114.575 83.2468 96.7006 98.1406 92.1259 118.107C103.381 105.48 111.257 100.386 115.974 98.3476C115.226 99.0167 114.487 99.6961 113.759 100.386C113.517 100.614 113.285 100.845 113.047 101.074C112.569 101.531 112.096 101.993 111.626 102.459C111.349 102.735 111.079 103.013 110.806 103.292C110.393 103.71 109.984 104.131 109.577 104.555C109.29 104.856 109.011 105.157 108.729 105.459C108.353 105.86 107.98 106.264 107.61 106.671C107.325 106.986 107.044 107.301 106.763 107.617C106.131 108.329 105.506 109.048 104.89 109.773C104.569 110.153 104.25 110.534 103.933 110.917C103.654 111.254 103.376 111.591 103.103 111.928C102.81 112.29 102.519 112.654 102.23 113.02C101.951 113.372 101.671 113.723 101.398 114.075C101.138 114.41 100.886 114.744 100.631 115.078C100.344 115.455 100.055 115.833 99.7756 116.208C99.5756 116.477 99.3838 116.743 99.1873 117.011C97.494 119.321 95.8722 121.682 94.3244 124.092C94.3205 124.098 94.3166 124.103 94.3138 124.109C93.9352 124.7 93.5608 125.293 93.1908 125.889C93.1713 125.921 93.1509 125.953 93.1314 125.985C92.7732 126.563 92.4192 127.144 92.0693 127.727L92.0326 127.787C91.1553 129.248 90.304 130.725 89.4791 132.216C85.4318 139.55 83.4615 144.675 83.3763 144.979C70.5958 190.67 110.484 171.375 116.05 168.495C122.044 171.456 128.79 173.122 135.928 173.122C155.468 173.122 172.092 160.65 178.281 143.232H154.669C151.175 149.134 144.449 153.132 136.722 153.132C125.4 153.132 116.222 144.554 116.222 133.972H180.496C180.739 132.077 180.866 130.146 180.866 128.185ZM172.471 83.9632C176.341 86.5753 179.444 90.6769 174.114 104.491C169.002 96.2687 161.31 89.8191 152.169 86.2742C156.327 84.266 166.626 80.0179 172.471 83.9632ZM90.2326 168.403C87.0802 165.171 86.5232 157.298 93.4787 142.952C96.9885 153.044 103.993 161.5 113.046 166.866C108.544 169.345 96.5904 174.925 90.2326 168.403ZM116.123 121.684C116.482 111.399 125.433 103.164 136.43 103.164C147.428 103.164 156.379 111.399 156.738 121.684H116.123Z" fill="#1EBBEE"/>
<defs>
<filter id="filter0_d_22_675" x="0.932861" y="0.405762" width="260" height="260" filterUnits="userSpaceOnUse" color-interpolation-filters="sRGB">
<feFlood flood-opacity="0" result="BackgroundImageFix"/>
<feColorMatrix in="SourceAlpha" type="matrix" values="0 0 0 0 0 0 0 0 0 0 0 0 0 0 0 0 0 0 127 0" result="hardAlpha"/>
<feOffset dy="4"/>
<feGaussianBlur stdDeviation="20"/>
<feComposite in2="hardAlpha" operator="out"/>
<feColorMatrix type="matrix" values="0 0 0 0 0.0367917 0 0 0 0 0.0348958 0 0 0 0 0.0484375 0 0 0 0.1 0"/>
<feBlend mode="normal" in2="BackgroundImageFix" result="effect1_dropShadow_22_675"/>
<feBlend mode="normal" in="SourceGraphic" in2="effect1_dropShadow_22_675" result="shape"/>
</filter>
</defs>
</svg>
