<svg width="261" height="261" viewBox="0 0 261 261" fill="none" xmlns="http://www.w3.org/2000/svg">
<g filter="url(#filter0_d_25_415)">
<rect x="40.9329" y="36.2969" width="180" height="180" rx="32" fill="white"/>
<rect x="41.4329" y="36.7969" width="179" height="179" rx="31.5" stroke="#D9D9D9"/>
</g>
<path d="M171.524 75.8911H89.6547C84.6481 75.8911 80.5895 79.9497 80.5895 84.9563V166.826C80.5895 171.833 84.6481 175.891 89.6547 175.891H171.524C176.531 175.891 180.589 171.833 180.589 166.826V84.9563C180.589 79.9497 176.531 75.8911 171.524 75.8911Z" fill="#DC395F"/>
<path d="M114.009 107.354C117.334 107.354 120.118 104.749 120.118 101.334C120.118 97.9212 117.334 95.3162 114.009 95.3162C110.685 95.3162 107.901 97.9212 107.901 101.334C107.901 104.748 110.685 107.354 114.009 107.354ZM101.343 139.589C100.984 141.116 100.804 142.765 100.804 144.11C100.804 149.412 103.679 152.931 109.788 152.931C114.854 152.931 118.961 149.922 121.919 145.064L120.113 152.311H130.173L135.923 129.249C137.361 123.41 140.146 120.379 144.368 120.379C147.692 120.379 149.758 122.446 149.758 125.859C149.758 126.847 149.668 127.924 149.309 129.093L146.344 139.693C145.895 141.221 145.716 142.749 145.716 144.185C145.716 149.217 148.68 152.898 154.879 152.898C160.179 152.898 164.401 149.486 166.737 141.311L162.784 139.785C160.808 145.262 159.101 146.252 157.753 146.252C156.405 146.252 155.687 145.355 155.687 143.559C155.687 142.75 155.867 141.853 156.136 140.773L159.011 130.445C159.73 128.02 160 125.87 160 123.894C160 116.168 155.328 112.136 149.668 112.136C144.368 112.136 138.978 116.917 136.283 121.949L138.259 112.917H122.898L120.742 120.872H127.929L123.503 138.591C120.028 146.317 113.644 146.442 112.843 146.263C111.527 145.966 110.686 145.466 110.686 143.757C110.686 142.771 110.865 141.354 111.314 139.646L118.053 112.917H100.984L98.8278 120.872H105.924L101.343 139.589" fill="white"/>
<defs>
<filter id="filter0_d_25_415" x="0.932861" y="0.296875" width="260" height="260" filterUnits="userSpaceOnUse" color-interpolation-filters="sRGB">
<feFlood flood-opacity="0" result="BackgroundImageFix"/>
<feColorMatrix in="SourceAlpha" type="matrix" values="0 0 0 0 0 0 0 0 0 0 0 0 0 0 0 0 0 0 127 0" result="hardAlpha"/>
<feOffset dy="4"/>
<feGaussianBlur stdDeviation="20"/>
<feComposite in2="hardAlpha" operator="out"/>
<feColorMatrix type="matrix" values="0 0 0 0 0.0367917 0 0 0 0 0.0348958 0 0 0 0 0.0484375 0 0 0 0.1 0"/>
<feBlend mode="normal" in2="BackgroundImageFix" result="effect1_dropShadow_25_415"/>
<feBlend mode="normal" in="SourceGraphic" in2="effect1_dropShadow_25_415" result="shape"/>
</filter>
</defs>
</svg>
