<svg width="261" height="261" viewBox="0 0 261 261" fill="none" xmlns="http://www.w3.org/2000/svg">
<g filter="url(#filter0_d_33_2414)">
<rect x="40.8285" y="36.188" width="180" height="180" rx="32" fill="white"/>
<rect x="41.3285" y="36.688" width="179" height="179" rx="31.5" stroke="#D9D9D9"/>
</g>
<path fill-rule="evenodd" clip-rule="evenodd" d="M176.207 104.082L176.615 105.034C179.608 111.633 181.104 118.571 181.104 125.782C181.104 153.333 158.655 175.782 131.104 175.782C103.553 175.782 81.1045 153.333 81.1045 125.782C81.1045 98.2312 103.553 75.7822 131.104 75.7822C139.2 75.7822 146.887 77.687 153.962 81.2244L154.914 81.7006L154.098 82.3809C152.057 84.0135 150.492 86.0543 149.472 88.4353L149.2 89.1156L148.588 88.8434C143.077 86.2584 137.227 84.8979 131.104 84.8979C108.519 84.8979 90.2201 103.197 90.2201 125.782C90.2201 148.367 108.519 166.667 131.104 166.667C153.689 166.667 171.989 148.299 171.989 125.782C171.989 120.408 170.969 115.102 168.859 110.136L168.588 109.456L169.268 109.183C171.649 108.299 173.825 106.803 175.526 104.898L176.207 104.082ZM163.825 105.034C169.574 105.034 174.234 100.374 174.234 94.6259C174.234 88.8776 169.574 84.2177 163.825 84.2177C158.077 84.2177 153.417 88.8776 153.417 94.6259C153.417 100.374 158.077 105.034 163.825 105.034ZM131.104 102.993C118.519 102.993 108.315 113.197 108.315 125.783C108.315 138.368 118.519 148.572 131.104 148.572C143.689 148.572 153.893 138.368 153.893 125.783C153.893 113.197 143.689 102.993 131.104 102.993Z" fill="#3880FF"/>
<defs>
<filter id="filter0_d_33_2414" x="0.828491" y="0.187988" width="260" height="260" filterUnits="userSpaceOnUse" color-interpolation-filters="sRGB">
<feFlood flood-opacity="0" result="BackgroundImageFix"/>
<feColorMatrix in="SourceAlpha" type="matrix" values="0 0 0 0 0 0 0 0 0 0 0 0 0 0 0 0 0 0 127 0" result="hardAlpha"/>
<feOffset dy="4"/>
<feGaussianBlur stdDeviation="20"/>
<feComposite in2="hardAlpha" operator="out"/>
<feColorMatrix type="matrix" values="0 0 0 0 0.0367917 0 0 0 0 0.0348958 0 0 0 0 0.0484375 0 0 0 0.1 0"/>
<feBlend mode="normal" in2="BackgroundImageFix" result="effect1_dropShadow_33_2414"/>
<feBlend mode="normal" in="SourceGraphic" in2="effect1_dropShadow_33_2414" result="shape"/>
</filter>
</defs>
</svg>
