<svg width="261" height="261" viewBox="0 0 261 261" fill="none" xmlns="http://www.w3.org/2000/svg">
<g filter="url(#filter0_d_22_678)">
<rect x="40.9329" y="36.7029" width="180" height="180" rx="32" fill="white"/>
<rect x="41.4329" y="37.2029" width="179" height="179" rx="31.5" stroke="#D9D9D9"/>
</g>
<path d="M130.46 76.3061C130.46 76.3061 159.829 74.9841 175.394 104.5H127.962C127.962 104.5 119.004 104.205 111.368 115.073C109.166 119.626 106.817 124.325 109.46 133.575C105.642 127.115 89.1948 98.4797 89.1948 98.4797C89.1948 98.4797 100.797 77.4803 130.46 76.3061Z" fill="#C6352E"/>
<path d="M173.865 151.246C173.865 151.246 160.322 177.338 126.977 176.056C131.091 168.936 150.699 134.982 150.699 134.982C150.699 134.982 155.432 127.372 149.843 115.325C147.001 111.141 144.107 106.756 134.774 104.418C142.28 104.344 175.3 104.423 175.3 104.423C175.3 104.423 187.682 124.971 173.865 151.246Z" fill="#F4D911"/>
<path d="M87.2633 151.444C87.2633 151.444 71.4392 126.666 89.2246 98.4316C93.3344 105.555 112.932 139.514 112.932 139.514C112.932 139.514 117.154 147.419 130.383 148.602C135.426 148.234 140.671 147.921 147.362 141.008C143.673 147.544 127.093 176.102 127.093 176.102C127.093 176.102 103.107 176.549 87.2633 151.444Z" fill="#81B354"/>
<path d="M126.977 176.297L133.649 148.456C133.649 148.456 140.985 147.884 147.132 141.137C143.316 147.85 126.977 176.297 126.977 176.297Z" fill="#7BAA50"/>
<path d="M108.115 126.609C108.115 114.336 118.063 104.386 130.337 104.386C142.611 104.386 152.56 114.335 152.56 126.609C152.56 138.883 142.611 148.832 130.337 148.832C118.063 148.832 108.115 138.883 108.115 126.609Z" fill="white"/>
<path d="M111.834 126.609C111.834 116.39 120.118 108.106 130.337 108.106C140.555 108.106 148.84 116.39 148.84 126.609C148.84 136.827 140.555 145.112 130.337 145.112C120.118 145.112 111.834 136.827 111.834 126.609Z" fill="url(#paint0_linear_22_678)"/>
<path d="M175.3 104.423L147.827 112.478C147.827 112.478 143.685 106.398 134.774 104.418C142.495 104.392 175.3 104.423 175.3 104.423Z" fill="#E7CE12"/>
<path d="M108.926 132.576C105.065 125.89 89.1958 98.479 89.1958 98.479L109.547 118.611C109.547 118.611 107.456 122.913 108.249 129.058L108.926 132.576Z" fill="#BC332C"/>
<defs>
<filter id="filter0_d_22_678" x="0.932861" y="0.702881" width="260" height="260" filterUnits="userSpaceOnUse" color-interpolation-filters="sRGB">
<feFlood flood-opacity="0" result="BackgroundImageFix"/>
<feColorMatrix in="SourceAlpha" type="matrix" values="0 0 0 0 0 0 0 0 0 0 0 0 0 0 0 0 0 0 127 0" result="hardAlpha"/>
<feOffset dy="4"/>
<feGaussianBlur stdDeviation="20"/>
<feComposite in2="hardAlpha" operator="out"/>
<feColorMatrix type="matrix" values="0 0 0 0 0.0367917 0 0 0 0 0.0348958 0 0 0 0 0.0484375 0 0 0 0.1 0"/>
<feBlend mode="normal" in2="BackgroundImageFix" result="effect1_dropShadow_22_678"/>
<feBlend mode="normal" in="SourceGraphic" in2="effect1_dropShadow_22_678" result="shape"/>
</filter>
<linearGradient id="paint0_linear_22_678" x1="130.337" y1="108.368" x2="130.337" y2="144.005" gradientUnits="userSpaceOnUse">
<stop stop-color="#A2C0E6"/>
<stop offset="1" stop-color="#406CB1"/>
</linearGradient>
</defs>
</svg>
