<svg width="261" height="261" viewBox="0 0 261 261" fill="none" xmlns="http://www.w3.org/2000/svg">
<g filter="url(#filter0_d_101_39)">
<rect x="40.9329" y="36.188" width="180" height="180" rx="32" fill="white"/>
<rect x="41.4329" y="36.688" width="179" height="179" rx="31.5" stroke="#D9D9D9"/>
</g>
<path d="M116.361 175.649C116.361 175.648 116.36 175.648 116.359 175.647C104.475 172.912 93.9515 165.178 90.6682 153.028C87.3825 140.87 91.8536 128.612 99.1568 118.866C102.808 113.997 107.079 109.627 111.522 105.478C115.657 101.616 120.214 98.0661 123.96 93.8149C127.823 89.4293 132.652 81.5847 128.987 75.6553C135.642 80.6275 141.009 88.9365 140.112 97.4954C139.395 104.325 134.271 111.278 139.29 117.727C142.412 121.736 148.732 120.895 151.066 117.023L150.894 117.208C151.294 116.572 151.587 115.874 151.761 115.143C151.773 114.55 151.668 113.887 151.347 113.108L151.958 113.442C163.659 119.509 173.105 130.105 172.84 143.875C172.521 160.612 156.927 172.324 141.836 175.655C148.978 172.842 155.345 167.269 156.212 159.257C157.012 151.864 153.049 145.491 147.683 140.777C142.581 136.291 136.494 133.4 130.945 129.574C127.747 127.368 122.892 122.941 124.6 118.451C122.378 120.364 120.623 123.041 119.931 125.898C118.549 131.598 122.063 136.038 125.695 139.968C129.369 143.937 129.084 150.75 122.887 152.106C120.235 152.683 117.427 151.62 115.823 149.432C114.098 147.079 114.478 144.673 115.174 142.042C109.382 146.142 104.725 152.381 104.741 159.729C104.755 166.469 110.364 173.055 116.359 175.647C116.36 175.648 116.361 175.648 116.362 175.648L116.361 175.649Z" fill="#EE4323"/>
<defs>
<filter id="filter0_d_101_39" x="0.932861" y="0.187988" width="260" height="260" filterUnits="userSpaceOnUse" color-interpolation-filters="sRGB">
<feFlood flood-opacity="0" result="BackgroundImageFix"/>
<feColorMatrix in="SourceAlpha" type="matrix" values="0 0 0 0 0 0 0 0 0 0 0 0 0 0 0 0 0 0 127 0" result="hardAlpha"/>
<feOffset dy="4"/>
<feGaussianBlur stdDeviation="20"/>
<feComposite in2="hardAlpha" operator="out"/>
<feColorMatrix type="matrix" values="0 0 0 0 0.0367917 0 0 0 0 0.0348958 0 0 0 0 0.0484375 0 0 0 0.1 0"/>
<feBlend mode="normal" in2="BackgroundImageFix" result="effect1_dropShadow_101_39"/>
<feBlend mode="normal" in="SourceGraphic" in2="effect1_dropShadow_101_39" result="shape"/>
</filter>
</defs>
</svg>
