<svg width="261" height="261" viewBox="0 0 261 261" fill="none" xmlns="http://www.w3.org/2000/svg">
<g filter="url(#filter0_d_22_679)">
<rect x="40.9329" y="36.4058" width="180" height="180" rx="32" fill="white"/>
<rect x="41.4329" y="36.9058" width="179" height="179" rx="31.5" stroke="#D9D9D9"/>
</g>
<path d="M170.843 150.421C169.51 151.118 168.135 151.733 166.727 152.261C162.242 153.939 157.492 154.793 152.705 154.784C134.223 154.784 118.123 142.071 118.123 125.756C118.146 123.568 118.754 121.426 119.882 119.551C121.01 117.675 122.618 116.135 124.54 115.089C107.823 115.792 103.527 133.212 103.527 143.418C103.527 172.274 130.121 175.2 135.851 175.2C138.941 175.2 143.6 174.301 146.397 173.419L146.909 173.247C157.67 169.526 166.844 162.253 172.921 152.624C173.107 152.331 173.19 151.984 173.157 151.638C173.124 151.292 172.977 150.968 172.739 150.715C172.5 150.462 172.185 150.296 171.841 150.243C171.498 150.19 171.147 150.252 170.843 150.421Z" fill="url(#paint0_linear_22_679)"/>
<path opacity="0.35" d="M170.843 150.421C169.51 151.118 168.135 151.733 166.727 152.261C162.242 153.939 157.492 154.793 152.705 154.784C134.223 154.784 118.123 142.071 118.123 125.756C118.146 123.568 118.754 121.426 119.882 119.551C121.01 117.675 122.618 116.135 124.54 115.089C107.823 115.792 103.527 133.212 103.527 143.418C103.527 172.274 130.121 175.2 135.851 175.2C138.941 175.2 143.6 174.301 146.397 173.419L146.909 173.247C157.67 169.526 166.844 162.253 172.921 152.624C173.107 152.331 173.19 151.984 173.157 151.638C173.124 151.292 172.977 150.968 172.739 150.715C172.5 150.462 172.185 150.296 171.841 150.243C171.498 150.19 171.147 150.252 170.843 150.421Z" fill="url(#paint1_radial_22_679)"/>
<path d="M121.888 170.294C118.404 168.132 115.385 165.298 113.006 161.959C110.295 158.244 108.429 153.981 107.54 149.469C106.65 144.956 106.759 140.304 107.858 135.838C108.957 131.372 111.019 127.201 113.901 123.616C116.783 120.032 120.414 117.122 124.54 115.089C125.759 114.515 127.84 113.476 130.61 113.527C132.561 113.541 134.482 114.007 136.223 114.888C137.964 115.769 139.477 117.041 140.644 118.604C142.221 120.71 143.091 123.262 143.128 125.893C143.128 125.811 152.681 94.8025 111.881 94.8025C94.7349 94.8025 80.635 111.074 80.635 125.35C80.5673 132.901 82.1831 140.373 85.3649 147.222C90.5648 158.317 99.658 167.116 110.918 171.948C122.178 176.78 134.82 177.309 146.444 173.434C142.374 174.717 138.074 175.103 133.841 174.563C129.607 174.024 125.541 172.573 121.923 170.31L121.888 170.294Z" fill="url(#paint2_linear_22_679)"/>
<path opacity="0.41" d="M121.888 170.294C118.404 168.132 115.385 165.298 113.006 161.959C110.295 158.244 108.429 153.981 107.54 149.469C106.65 144.956 106.759 140.304 107.858 135.838C108.957 131.372 111.019 127.201 113.901 123.616C116.783 120.032 120.414 117.122 124.54 115.089C125.759 114.515 127.84 113.476 130.61 113.527C132.561 113.541 134.482 114.007 136.223 114.888C137.964 115.769 139.477 117.041 140.644 118.604C142.221 120.71 143.091 123.262 143.128 125.893C143.128 125.811 152.681 94.8025 111.881 94.8025C94.7349 94.8025 80.635 111.074 80.635 125.35C80.5673 132.901 82.1831 140.373 85.3649 147.222C90.5648 158.317 99.658 167.116 110.918 171.948C122.178 176.78 134.82 177.309 146.444 173.434C142.374 174.717 138.074 175.103 133.841 174.563C129.607 174.024 125.541 172.573 121.923 170.31L121.888 170.294Z" fill="url(#paint3_radial_22_679)"/>
<path d="M140.089 134.142C139.773 134.552 138.8 135.118 138.8 136.352C138.8 137.372 139.464 138.352 140.644 139.176C146.26 143.082 156.849 142.567 156.876 142.567C161.038 142.557 165.121 141.43 168.699 139.305C172.309 137.197 175.305 134.183 177.39 130.56C179.475 126.937 180.576 122.831 180.584 118.651C180.686 109.898 177.46 104.079 176.155 101.501C167.879 85.3114 150.014 76 130.586 76C117.448 75.9987 104.837 81.1693 95.4813 90.3935C86.1255 99.6178 80.7768 112.154 80.592 125.291C80.7795 111.019 94.9654 99.4934 111.838 99.4934C113.205 99.4934 121.001 99.6262 128.243 103.427C134.625 106.778 137.968 110.824 140.292 114.835C142.706 119.003 143.136 124.268 143.136 126.365C143.136 128.463 142.065 131.572 140.089 134.142Z" fill="url(#paint4_radial_22_679)"/>
<path d="M140.089 134.142C139.773 134.552 138.8 135.118 138.8 136.352C138.8 137.372 139.464 138.352 140.644 139.176C146.26 143.082 156.849 142.567 156.876 142.567C161.038 142.557 165.121 141.43 168.699 139.305C172.309 137.197 175.305 134.183 177.39 130.56C179.475 126.937 180.576 122.831 180.584 118.651C180.686 109.898 177.46 104.079 176.155 101.501C167.879 85.3114 150.014 76 130.586 76C117.448 75.9987 104.837 81.1693 95.4813 90.3935C86.1255 99.6178 80.7768 112.154 80.592 125.291C80.7795 111.019 94.9654 99.4934 111.838 99.4934C113.205 99.4934 121.001 99.6262 128.243 103.427C134.625 106.778 137.968 110.824 140.292 114.835C142.706 119.003 143.136 124.268 143.136 126.365C143.136 128.463 142.065 131.572 140.089 134.142Z" fill="url(#paint5_radial_22_679)"/>
<defs>
<filter id="filter0_d_22_679" x="0.932861" y="0.405762" width="260" height="260" filterUnits="userSpaceOnUse" color-interpolation-filters="sRGB">
<feFlood flood-opacity="0" result="BackgroundImageFix"/>
<feColorMatrix in="SourceAlpha" type="matrix" values="0 0 0 0 0 0 0 0 0 0 0 0 0 0 0 0 0 0 127 0" result="hardAlpha"/>
<feOffset dy="4"/>
<feGaussianBlur stdDeviation="20"/>
<feComposite in2="hardAlpha" operator="out"/>
<feColorMatrix type="matrix" values="0 0 0 0 0.0367917 0 0 0 0 0.0348958 0 0 0 0 0.0484375 0 0 0 0.1 0"/>
<feBlend mode="normal" in2="BackgroundImageFix" result="effect1_dropShadow_22_679"/>
<feBlend mode="normal" in="SourceGraphic" in2="effect1_dropShadow_22_679" result="shape"/>
</filter>
<linearGradient id="paint0_linear_22_679" x1="103.527" y1="145.152" x2="173.183" y2="145.152" gradientUnits="userSpaceOnUse">
<stop stop-color="#0C59A4"/>
<stop offset="1" stop-color="#114A8B"/>
</linearGradient>
<radialGradient id="paint1_radial_22_679" cx="0" cy="0" r="1" gradientUnits="userSpaceOnUse" gradientTransform="translate(141.999 145.701) scale(37.2535 35.3908)">
<stop offset="0.72" stop-opacity="0"/>
<stop offset="0.95" stop-opacity="0.53"/>
<stop offset="1"/>
</radialGradient>
<linearGradient id="paint2_linear_22_679" x1="140.249" y1="114.937" x2="96.7424" y2="162.326" gradientUnits="userSpaceOnUse">
<stop stop-color="#1B9DE2"/>
<stop offset="0.16" stop-color="#1595DF"/>
<stop offset="0.67" stop-color="#0680D7"/>
<stop offset="1" stop-color="#0078D4"/>
</linearGradient>
<radialGradient id="paint3_radial_22_679" cx="0" cy="0" r="1" gradientUnits="userSpaceOnUse" gradientTransform="translate(108.165 153.729) rotate(-81.3844) scale(56.0195 45.258)">
<stop offset="0.76" stop-opacity="0"/>
<stop offset="0.95" stop-opacity="0.5"/>
<stop offset="1"/>
</radialGradient>
<radialGradient id="paint4_radial_22_679" cx="0" cy="0" r="1" gradientUnits="userSpaceOnUse" gradientTransform="translate(90.6934 94.5044) rotate(92.2906) scale(79.1283 168.527)">
<stop stop-color="#35C1F1"/>
<stop offset="0.11" stop-color="#34C1ED"/>
<stop offset="0.23" stop-color="#2FC2DF"/>
<stop offset="0.31" stop-color="#2BC3D2"/>
<stop offset="0.67" stop-color="#36C752"/>
</radialGradient>
<radialGradient id="paint5_radial_22_679" cx="0" cy="0" r="1" gradientUnits="userSpaceOnUse" gradientTransform="translate(174.359 106.233) rotate(73.7398) scale(38.0191 30.9171)">
<stop stop-color="#66EB6E"/>
<stop offset="1" stop-color="#66EB6E" stop-opacity="0"/>
</radialGradient>
</defs>
</svg>
