<svg width="261" height="261" viewBox="0 0 261 261" fill="none" xmlns="http://www.w3.org/2000/svg">
<g filter="url(#filter0_d_22_667)">
<rect x="40.9329" y="36.7029" width="180" height="180" rx="32" fill="white"/>
<rect x="41.4329" y="37.2029" width="179" height="179" rx="31.5" stroke="#D9D9D9"/>
</g>
<path d="M80.7611 76.2974H180.761V176.297H80.7611V76.2974Z" fill="#CF4547"/>
<path d="M115.362 126.963C115.315 127.032 115.232 127.245 115.111 127.608C114.99 127.97 114.843 128.422 114.67 128.967C114.498 129.511 114.31 130.122 114.11 130.796C113.908 131.47 113.701 132.16 113.489 132.861C113.276 133.564 113.072 134.251 112.876 134.927C112.68 135.601 112.504 136.212 112.349 136.757C112.195 137.301 112.065 137.758 111.961 138.128C111.858 138.496 111.795 138.713 111.771 138.782C111.715 138.999 111.623 139.242 111.495 139.509C111.368 139.775 111.219 140.026 111.047 140.265C110.874 140.504 110.684 140.701 110.477 140.858C110.269 141.015 110.056 141.093 109.838 141.093C109.47 141.093 109.202 140.97 109.035 140.725C108.869 140.48 108.784 140.03 108.784 139.375V139.089C108.784 138.993 108.79 138.892 108.802 138.784C108.814 138.566 108.9 138.157 109.061 137.556C109.221 136.956 109.415 136.279 109.638 135.521C109.862 134.763 110.105 133.981 110.363 133.168C110.622 132.357 110.855 131.631 111.062 130.99C110.451 131.672 109.791 132.35 109.076 133.025C108.363 133.701 107.631 134.306 106.884 134.845C106.136 135.384 105.382 135.824 104.622 136.163C103.862 136.504 103.132 136.674 102.43 136.674C101.625 136.674 100.932 136.496 100.35 136.144C99.7685 135.789 99.2886 135.325 98.9086 134.753C98.5286 134.181 98.2466 133.533 98.0624 132.81C97.8783 132.087 97.7863 131.364 97.7863 130.642V130.375C97.7863 130.293 97.7921 130.213 97.8039 130.13C97.8724 128.822 98.0605 127.478 98.3641 126.101C98.6696 124.724 99.0692 123.353 99.5648 121.992C100.06 120.629 100.632 119.297 101.283 117.994C101.933 116.692 102.64 115.462 103.406 114.304C104.172 113.146 104.985 112.079 105.848 111.103C106.712 110.128 107.597 109.29 108.506 108.588C109.415 107.887 110.334 107.339 111.26 106.943C112.187 106.547 113.105 106.35 114.014 106.35C115.062 106.35 116.075 106.636 117.052 107.208C118.03 107.779 118.944 108.708 119.796 109.989C119.992 110.275 120.116 110.565 120.166 110.859C120.217 111.152 120.245 111.429 120.245 111.687C120.245 112.3 120.098 112.784 119.804 113.139C119.51 113.493 119.162 113.669 118.76 113.669C118.392 113.669 118.049 113.475 117.734 113.086C117.416 112.698 117.064 112.142 116.672 111.419C116.304 110.765 115.898 110.291 115.456 109.997C115.013 109.703 114.531 109.558 114.014 109.558C113.209 109.558 112.347 109.893 111.433 110.561C110.518 111.229 109.611 112.112 108.714 113.209C107.817 114.306 106.955 115.559 106.132 116.972C105.31 118.382 104.581 119.827 103.948 121.306C103.316 122.785 102.812 124.244 102.438 125.682C102.064 127.12 101.878 128.413 101.878 129.558C101.878 129.94 101.903 130.332 101.956 130.734C102.009 131.135 102.105 131.501 102.25 131.829C102.393 132.156 102.589 132.426 102.838 132.636C103.085 132.847 103.398 132.953 103.778 132.953C104.203 132.953 104.687 132.81 105.227 132.524C105.768 132.238 106.33 131.864 106.91 131.4C107.492 130.935 108.075 130.41 108.663 129.825C109.251 129.239 109.797 128.646 110.302 128.046C110.808 127.447 111.258 126.871 111.648 126.319C112.04 125.766 112.334 125.286 112.528 124.877L114.134 120.072C114.33 119.555 114.586 119.187 114.901 118.968C115.219 118.75 115.544 118.641 115.877 118.641C116.038 118.641 116.198 118.668 116.361 118.723C116.521 118.778 116.666 118.862 116.792 118.979C116.919 119.095 117.019 119.246 117.093 119.43C117.168 119.614 117.205 119.829 117.205 120.074C117.205 120.729 117.148 121.342 117.033 121.915C116.917 122.489 116.77 123.048 116.592 123.592C116.414 124.137 116.216 124.687 115.996 125.237C115.781 125.786 115.567 126.362 115.362 126.963ZM137.131 130.971C136.624 131.652 136.034 132.316 135.362 132.965C134.688 133.613 133.995 134.189 133.282 134.692C132.569 135.196 131.866 135.601 131.176 135.909C130.485 136.216 129.864 136.369 129.312 136.369C128.759 136.369 128.311 136.185 127.964 135.816C127.619 135.448 127.447 134.821 127.447 133.934C127.447 133.307 127.539 132.577 127.723 131.746C127.424 132.279 127.049 132.818 126.601 133.362C126.152 133.907 125.639 134.404 125.063 134.855C124.487 135.305 123.843 135.67 123.13 135.948C122.417 136.228 121.639 136.367 120.799 136.367C120.419 136.367 120.053 136.32 119.702 136.224C119.352 136.128 119.044 135.965 118.78 135.734C118.515 135.503 118.302 135.194 118.141 134.804C117.981 134.416 117.9 133.928 117.9 133.343C117.9 133.329 117.924 133.121 117.969 132.72C118.014 132.318 118.161 131.684 118.41 130.818C118.656 129.952 119.04 128.832 119.557 127.455C120.076 126.078 120.807 124.409 121.749 122.444C121.99 121.927 122.27 121.555 122.585 121.33C122.903 121.105 123.244 120.993 123.612 120.993C123.772 120.993 123.939 121.016 124.113 121.063C124.286 121.112 124.446 121.187 124.597 121.289C124.746 121.391 124.867 121.52 124.959 121.677C125.052 121.833 125.099 122.013 125.099 122.219C125.099 122.356 125.081 122.485 125.046 122.607C124.989 122.84 124.865 123.142 124.673 123.518C124.483 123.894 124.262 124.323 124.009 124.807C123.757 125.29 123.488 125.811 123.206 126.372C122.924 126.93 122.662 127.51 122.421 128.109C122.18 128.708 121.972 129.319 121.8 129.938C121.628 130.559 121.53 131.163 121.506 131.748C121.506 131.993 121.563 132.218 121.679 132.424C121.794 132.628 121.984 132.731 122.249 132.731C122.997 132.731 123.71 132.487 124.389 131.995C125.069 131.505 125.696 130.894 126.272 130.166C126.848 129.437 127.369 128.653 127.835 127.813C128.301 126.975 128.691 126.209 129 125.514C129.22 125.049 129.412 124.552 129.578 124.021C129.745 123.49 129.927 122.999 130.123 122.548C130.318 122.098 130.542 121.724 130.796 121.424C131.049 121.124 131.366 120.973 131.746 120.973C132.16 120.973 132.489 121.13 132.73 121.443C132.971 121.757 133.092 122.133 133.092 122.568C133.092 122.813 133.016 123.151 132.859 123.58C132.702 124.009 132.508 124.501 132.271 125.053C132.036 125.606 131.78 126.195 131.504 126.822C131.227 127.449 130.971 128.087 130.736 128.734C130.499 129.382 130.305 130.015 130.148 130.636C129.993 131.257 129.915 131.832 129.915 132.363C129.915 132.855 130.168 133.1 130.675 133.1C131.031 133.1 131.474 132.976 132.005 132.731C132.536 132.487 133.09 132.142 133.672 131.699C134.254 131.257 134.833 130.736 135.415 130.134C135.997 129.535 136.512 128.887 136.96 128.191L137.131 130.971Z" fill="white" stroke="white" stroke-width="0.264085" stroke-miterlimit="10"/>
<path d="M137.668 129.948C137.54 130.262 137.417 130.626 137.295 131.043C137.174 131.459 137.115 131.831 137.115 132.158C137.115 132.362 137.15 132.526 137.219 132.65C137.288 132.773 137.421 132.834 137.617 132.834C137.858 132.834 138.159 132.749 138.524 132.577C138.886 132.407 139.278 132.181 139.697 131.901C140.118 131.623 140.555 131.302 141.009 130.94C141.464 130.579 141.916 130.203 142.365 129.815C142.813 129.425 143.242 129.038 143.651 128.65C144.061 128.26 144.425 127.904 144.748 127.576C144.84 127.48 144.95 127.412 145.075 127.373C145.201 127.332 145.31 127.312 145.402 127.312C145.632 127.312 145.824 127.408 145.972 127.598C146.121 127.788 146.196 128.041 146.196 128.354C146.196 128.64 146.115 128.961 145.955 129.316C145.794 129.67 145.512 130.019 145.109 130.358C144.372 131.163 143.63 131.925 142.882 132.648C142.133 133.37 141.389 134.007 140.647 134.559C139.904 135.112 139.168 135.55 138.437 135.879C137.707 136.207 136.996 136.369 136.304 136.369C135.832 136.369 135.439 136.295 135.121 136.144C134.804 135.993 134.551 135.789 134.361 135.531C134.171 135.272 134.036 134.965 133.956 134.61C133.875 134.256 133.834 133.882 133.834 133.486C133.834 132.818 133.919 132.132 134.085 131.431C134.252 130.73 134.449 130.086 134.681 129.5C135.084 128.436 135.491 127.381 135.907 126.331C136.32 125.281 136.7 124.319 137.047 123.448L142.276 110.258C142.484 109.727 142.762 109.351 143.115 109.133C143.465 108.916 143.82 108.806 144.176 108.806C144.533 108.806 144.858 108.922 145.152 109.153C145.446 109.384 145.592 109.76 145.592 110.277C145.592 110.522 145.544 110.782 145.446 111.055C145.348 111.327 145.224 111.621 145.075 111.934C144.787 112.575 144.445 113.358 144.049 114.285C143.651 115.211 143.226 116.22 142.772 117.311C142.318 118.402 141.851 119.536 141.373 120.715C140.895 121.894 140.429 123.042 139.975 124.16C139.52 125.279 139.095 126.339 138.698 127.339C138.296 128.342 137.954 129.212 137.668 129.948Z" fill="white" stroke="white" stroke-width="0.264085" stroke-miterlimit="10"/>
<path d="M162.13 126.246C162.291 126.137 162.441 126.049 162.578 125.98C162.716 125.911 162.849 125.878 162.976 125.878C163.229 125.878 163.419 125.992 163.546 126.215C163.673 126.44 163.736 126.717 163.736 127.044C163.736 127.398 163.66 127.759 163.503 128.127C163.348 128.495 163.115 128.801 162.804 129.047C161.572 130.138 160.473 131.133 159.507 132.032C158.54 132.932 157.629 133.705 156.771 134.354C155.913 135.002 155.077 135.501 154.26 135.856C153.443 136.21 152.567 136.387 151.635 136.387C150.76 136.387 150.084 136.195 149.606 135.815C149.128 135.433 148.889 134.908 148.889 134.24V134.087C148.889 134.04 148.895 133.981 148.907 133.913C148.952 133.503 149.132 133.033 149.441 132.503C149.753 131.972 150.127 131.419 150.564 130.845C151.001 130.272 151.467 129.694 151.962 129.108C152.458 128.522 152.914 127.966 153.335 127.441C153.754 126.916 154.103 126.436 154.379 126C154.655 125.563 154.795 125.21 154.795 124.936C154.795 124.772 154.736 124.642 154.622 124.548C154.507 124.452 154.317 124.405 154.052 124.405C153.592 124.405 153.118 124.525 152.628 124.764C152.139 125.003 151.655 125.322 151.179 125.723C150.701 126.125 150.235 126.585 149.78 127.104C149.326 127.623 148.901 128.16 148.503 128.72C148.106 129.28 147.743 129.841 147.416 130.407C147.089 130.973 146.809 131.494 146.58 131.972C146.511 132.123 146.413 132.334 146.286 132.606C146.159 132.879 146.021 133.186 145.873 133.527C145.722 133.868 145.565 134.218 145.397 134.579C145.23 134.941 145.077 135.282 144.94 135.601C144.801 135.922 144.678 136.206 144.568 136.461C144.458 136.714 144.38 136.886 144.335 136.982C144.276 137.106 144.182 137.337 144.049 137.677C143.916 138.018 143.765 138.416 143.591 138.874C143.418 139.331 143.236 139.811 143.048 140.316C142.858 140.821 142.68 141.297 142.513 141.748C142.347 142.198 142.2 142.592 142.073 142.933C141.945 143.274 141.865 143.505 141.83 143.628C141.714 143.983 141.579 144.316 141.424 144.631C141.27 144.944 141.091 145.22 140.89 145.459C140.688 145.698 140.459 145.888 140.198 146.031C139.94 146.174 139.648 146.245 139.327 146.245C138.911 146.245 138.571 146.145 138.298 145.949C138.028 145.751 137.893 145.373 137.893 144.815C137.893 144.543 137.928 144.263 137.997 143.977C138.065 143.691 138.153 143.407 138.255 143.129C138.359 142.848 138.465 142.576 138.574 142.312C138.684 142.045 138.784 141.791 138.876 141.544C139.497 140.181 140.132 138.814 140.776 137.444C141.42 136.073 142.039 134.718 142.631 133.374C143.224 132.032 143.773 130.712 144.28 129.418C144.786 128.123 145.207 126.881 145.54 125.696C145.632 125.451 145.759 125.103 145.92 124.652C146.08 124.202 146.264 123.759 146.472 123.322C146.68 122.885 146.913 122.507 147.171 122.188C147.43 121.867 147.71 121.708 148.008 121.708C148.468 121.708 148.801 121.814 149.009 122.025C149.216 122.237 149.32 122.546 149.32 122.956C149.32 123.038 149.308 123.167 149.285 123.344C149.261 123.52 149.232 123.708 149.198 123.906C149.163 124.104 149.126 124.292 149.087 124.468C149.046 124.644 149.009 124.773 148.975 124.856C149.4 124.392 149.861 123.933 150.356 123.475C150.852 123.018 151.363 122.605 151.894 122.237C152.423 121.869 152.963 121.569 153.515 121.336C154.068 121.105 154.62 120.989 155.173 120.989C155.553 120.989 155.929 121.044 156.303 121.154C156.677 121.263 157.01 121.422 157.304 121.634C157.597 121.845 157.836 122.112 158.021 122.431C158.205 122.752 158.297 123.122 158.297 123.545C158.297 124.106 158.156 124.701 157.874 125.336C157.592 125.97 157.237 126.607 156.812 127.247C156.385 127.888 155.925 128.513 155.431 129.118C154.936 129.725 154.473 130.277 154.04 130.775C153.61 131.272 153.247 131.696 152.953 132.042C152.66 132.391 152.507 132.626 152.495 132.747C152.495 132.912 152.548 133.043 152.65 133.147C152.752 133.251 152.926 133.3 153.169 133.3C153.365 133.3 153.653 133.19 154.033 132.973C154.413 132.755 154.945 132.377 155.629 131.839C156.313 131.3 157.182 130.577 158.236 129.67C159.29 128.765 160.588 127.623 162.13 126.246Z" fill="white" stroke="white" stroke-width="0.264085" stroke-miterlimit="10"/>
<defs>
<filter id="filter0_d_22_667" x="0.932861" y="0.702881" width="260" height="260" filterUnits="userSpaceOnUse" color-interpolation-filters="sRGB">
<feFlood flood-opacity="0" result="BackgroundImageFix"/>
<feColorMatrix in="SourceAlpha" type="matrix" values="0 0 0 0 0 0 0 0 0 0 0 0 0 0 0 0 0 0 127 0" result="hardAlpha"/>
<feOffset dy="4"/>
<feGaussianBlur stdDeviation="20"/>
<feComposite in2="hardAlpha" operator="out"/>
<feColorMatrix type="matrix" values="0 0 0 0 0.0367917 0 0 0 0 0.0348958 0 0 0 0 0.0484375 0 0 0 0.1 0"/>
<feBlend mode="normal" in2="BackgroundImageFix" result="effect1_dropShadow_22_667"/>
<feBlend mode="normal" in="SourceGraphic" in2="effect1_dropShadow_22_667" result="shape"/>
</filter>
</defs>
</svg>
