<svg width="261" height="261" viewBox="0 0 261 261" fill="none" xmlns="http://www.w3.org/2000/svg">
<g filter="url(#filter0_d_101_140)">
<rect x="40.761" y="36.1879" width="180" height="180" rx="32" fill="white"/>
<rect x="41.261" y="36.6879" width="179" height="179" rx="31.5" stroke="#D9D9D9"/>
</g>
<path d="M172.368 152.728L133.721 175.058C132.906 175.532 131.98 175.782 131.037 175.782C130.094 175.782 129.168 175.532 128.353 175.058L89.7059 152.728C88.0419 151.762 87.022 149.991 87.022 148.112V103.452C87.022 101.52 88.0419 99.8026 89.7059 98.8363L128.353 76.5066C129.168 76.0321 130.094 75.7821 131.037 75.7821C131.98 75.7821 132.906 76.0321 133.721 76.5066L172.368 98.8363C174.033 99.8026 175.052 101.574 175.052 103.452V148.112C174.998 149.99 173.979 151.762 172.368 152.728Z" fill="#8D6748"/>
<path d="M130.983 82.5724C130.178 82.5724 129.373 82.787 128.675 83.2165L95.2883 102.486C93.8389 103.292 92.9802 104.848 92.9802 106.458V144.998C92.9802 146.662 93.8389 148.165 95.2883 148.971L128.675 168.241C129.373 168.67 130.178 168.885 130.983 168.885C131.788 168.885 132.594 168.67 133.291 168.241L166.679 148.97C168.128 148.165 168.987 146.609 168.987 144.999V106.458C168.987 104.794 168.128 103.292 166.679 102.486L133.291 83.2161C132.593 82.787 131.788 82.5724 130.983 82.5724ZM130.983 84.1827C131.52 84.1827 132.003 84.3437 132.486 84.6122L165.873 103.882C166.786 104.419 167.376 105.439 167.376 106.512V145.052C167.376 146.126 166.786 147.146 165.873 147.682L132.486 166.952C132.003 167.221 131.52 167.382 130.983 167.382C130.452 167.38 129.932 167.231 129.48 166.952L96.0933 147.683C95.1806 147.146 94.5902 146.126 94.5902 145.053V106.512C94.5902 105.439 95.1806 104.419 96.0929 103.882L129.48 84.6122C129.963 84.3437 130.5 84.1824 130.983 84.1824L130.983 84.1827ZM127.897 117.784H132.406C132.567 117.784 132.674 117.73 132.782 117.623C135.465 114.617 135.734 108.337 135.734 106.458C135.734 106.19 135.519 105.922 135.197 105.922H125.106C124.837 105.922 124.569 106.136 124.569 106.458C124.569 108.283 124.837 114.564 127.521 117.623C127.629 117.73 127.736 117.784 127.897 117.784ZM126.662 107.586H133.748C134.016 107.586 134.285 107.8 134.285 108.122C134.285 109.625 134.016 113.866 132.191 116.066C132.03 116.174 131.923 116.228 131.762 116.228H128.595C128.434 116.228 128.326 116.174 128.219 116.066C126.394 113.92 126.179 109.625 126.126 108.122C126.126 107.854 126.34 107.586 126.662 107.586ZM131.171 104.848C131.171 104.848 133.104 103.721 131.923 101.681C131.225 100.608 130.903 99.6953 131.171 99.3194C130.473 100.178 129.293 101.091 130.581 103.023C131.011 103.506 131.225 104.526 131.171 104.848V104.848ZM129.024 105.009C129.024 105.009 130.312 104.258 129.507 102.862C129.024 102.164 128.81 101.52 129.024 101.305C128.541 101.896 127.79 102.486 128.648 103.828C128.917 104.096 129.024 104.794 129.024 105.009ZM128.863 115.584H131.547C131.654 115.584 131.762 115.53 131.869 115.423C132.782 114.349 133.211 112.685 133.426 111.236C133.426 111.236 133.372 111.719 132.084 112.202C130.313 112.846 127.199 112.417 127.199 112.417C127.467 113.544 127.897 114.617 128.541 115.423C128.595 115.53 128.756 115.584 128.863 115.584ZM108.681 130.667V119.932H106.695L103.42 124.977L100.146 119.932H98.1599V130.72H100.038V123.045L103.366 128.037H103.42L106.802 122.991V130.667H108.681ZM120.705 120.146C120.007 119.878 119.255 119.717 118.45 119.717C117.645 119.717 116.893 119.824 116.195 120.146C115.497 120.415 114.907 120.844 114.424 121.327C113.917 121.833 113.515 122.435 113.243 123.098C112.975 123.796 112.813 124.494 112.813 125.245V125.299C112.813 126.05 112.975 126.802 113.243 127.446C113.512 128.144 113.887 128.734 114.371 129.217C114.854 129.7 115.444 130.13 116.141 130.398C116.839 130.667 117.591 130.828 118.396 130.828C119.202 130.828 119.953 130.72 120.651 130.398C121.349 130.13 121.939 129.7 122.422 129.217C122.929 128.711 123.331 128.109 123.603 127.446C123.871 126.748 124.033 126.05 124.033 125.299V125.245C124.033 124.494 123.871 123.743 123.603 123.098C123.334 122.401 122.959 121.81 122.476 121.327C121.993 120.844 121.402 120.414 120.705 120.146ZM121.993 125.353C121.993 125.836 121.885 126.319 121.724 126.802C121.51 127.231 121.295 127.661 120.973 127.983C120.643 128.31 120.262 128.582 119.846 128.788C119.416 129.003 118.933 129.11 118.396 129.11C117.913 129.11 117.377 129.003 116.947 128.788C116.53 128.582 116.15 128.311 115.82 127.983C115.498 127.607 115.229 127.231 115.068 126.749C114.907 126.265 114.8 125.782 114.8 125.245V125.192C114.8 124.709 114.907 124.225 115.068 123.742C115.283 123.313 115.498 122.884 115.82 122.561C116.15 122.234 116.53 121.962 116.947 121.756C117.377 121.542 117.859 121.434 118.396 121.434C118.933 121.434 119.416 121.542 119.846 121.756C120.262 121.962 120.643 122.234 120.973 122.561C121.295 122.937 121.563 123.313 121.724 123.796C121.885 124.279 121.992 124.762 121.992 125.299V125.353H121.993ZM129.937 123.742C130.151 123.313 130.366 122.883 130.688 122.561C131.018 122.234 131.399 121.962 131.815 121.756C132.245 121.542 132.674 121.434 133.211 121.434C133.855 121.434 134.392 121.542 134.875 121.81C135.358 122.078 135.788 122.401 136.217 122.776L137.452 121.381C137.183 121.112 136.915 120.897 136.646 120.683C136.378 120.468 136.056 120.307 135.734 120.146C135.358 120.038 135.036 119.931 134.606 119.824C134.177 119.77 133.748 119.717 133.265 119.717C132.406 119.717 131.708 119.878 131.01 120.146C130.313 120.414 129.722 120.844 129.239 121.327C128.765 121.849 128.384 122.448 128.112 123.098C127.83 123.779 127.685 124.509 127.682 125.245V125.299C127.682 126.05 127.843 126.748 128.112 127.446C128.38 128.144 128.756 128.734 129.239 129.217C129.722 129.7 130.313 130.13 130.957 130.398C131.636 130.685 132.366 130.831 133.104 130.828C133.587 130.828 134.07 130.828 134.553 130.72C134.929 130.667 135.358 130.505 135.68 130.345C136.002 130.184 136.324 130.022 136.646 129.754C136.968 129.486 137.237 129.271 137.505 128.949L136.271 127.714C135.788 128.144 135.304 128.466 134.875 128.734C134.446 129.003 133.855 129.11 133.211 129.11C132.728 129.11 132.245 128.949 131.815 128.788C131.386 128.627 131.01 128.305 130.688 127.983C130.366 127.607 130.098 127.231 129.937 126.748C129.776 126.265 129.668 125.782 129.668 125.245V125.192C129.668 124.709 129.776 124.225 129.937 123.742ZM141.263 119.932V130.667H143.141V126.158H148.294V130.667H150.173V119.931H148.294V124.387H143.141V119.931H141.263V119.932ZM161.874 128.09L162.948 130.667H164.934L160.21 119.878H158.493L153.769 130.667H155.702L156.829 128.09H161.874V128.09ZM159.351 122.132L161.176 126.427H157.527L159.351 122.132ZM96.8181 134.638H165.256V134.048H96.8181V134.638ZM136.163 113.865C136.163 114.08 136.109 114.241 136.109 114.456H165.256V113.865H136.163H136.163ZM124.193 113.865H96.8181V114.456H124.247C124.247 114.242 124.193 114.08 124.193 113.865H124.193Z" fill="white"/>
<defs>
<filter id="filter0_d_101_140" x="0.760986" y="0.187866" width="260" height="260" filterUnits="userSpaceOnUse" color-interpolation-filters="sRGB">
<feFlood flood-opacity="0" result="BackgroundImageFix"/>
<feColorMatrix in="SourceAlpha" type="matrix" values="0 0 0 0 0 0 0 0 0 0 0 0 0 0 0 0 0 0 127 0" result="hardAlpha"/>
<feOffset dy="4"/>
<feGaussianBlur stdDeviation="20"/>
<feComposite in2="hardAlpha" operator="out"/>
<feColorMatrix type="matrix" values="0 0 0 0 0.0367917 0 0 0 0 0.0348958 0 0 0 0 0.0484375 0 0 0 0.1 0"/>
<feBlend mode="normal" in2="BackgroundImageFix" result="effect1_dropShadow_101_140"/>
<feBlend mode="normal" in="SourceGraphic" in2="effect1_dropShadow_101_140" result="shape"/>
</filter>
</defs>
</svg>
