<svg width="261" height="261" viewBox="0 0 261 261" fill="none" xmlns="http://www.w3.org/2000/svg">
<g filter="url(#filter0_d_25_413)">
<rect x="40.9329" y="36.2969" width="180" height="180" rx="32" fill="white"/>
<rect x="41.4329" y="36.7969" width="179" height="179" rx="31.5" stroke="#D9D9D9"/>
</g>
<path fill-rule="evenodd" clip-rule="evenodd" d="M101.847 112.987L131.591 170.878L81.5957 112.987H101.847Z" fill="#EA6C00"/>
<path fill-rule="evenodd" clip-rule="evenodd" d="M161.345 112.987L131.6 170.878L181.596 112.987H161.345Z" fill="#EA6C00"/>
<path fill-rule="evenodd" clip-rule="evenodd" d="M101.845 112.987H161.335L131.59 170.878L101.845 112.987Z" fill="#FDAD00"/>
<path fill-rule="evenodd" clip-rule="evenodd" d="M131.59 80.9043L103.411 83.8662L101.845 112.987L131.59 80.9043Z" fill="#FDD231"/>
<path fill-rule="evenodd" clip-rule="evenodd" d="M131.59 80.9043L159.77 83.8662L161.335 112.987L131.59 80.9043Z" fill="#FDD231"/>
<path fill-rule="evenodd" clip-rule="evenodd" d="M181.596 112.987L159.779 83.8662L161.345 112.987H181.596Z" fill="#FDAD00"/>
<path fill-rule="evenodd" clip-rule="evenodd" d="M81.5957 112.987L103.412 83.8662L101.847 112.987H81.5957Z" fill="#FDAD00"/>
<path fill-rule="evenodd" clip-rule="evenodd" d="M131.59 80.9043L101.845 112.987H161.335L131.59 80.9043Z" fill="#FEEEB7"/>
<defs>
<filter id="filter0_d_25_413" x="0.932861" y="0.296875" width="260" height="260" filterUnits="userSpaceOnUse" color-interpolation-filters="sRGB">
<feFlood flood-opacity="0" result="BackgroundImageFix"/>
<feColorMatrix in="SourceAlpha" type="matrix" values="0 0 0 0 0 0 0 0 0 0 0 0 0 0 0 0 0 0 127 0" result="hardAlpha"/>
<feOffset dy="4"/>
<feGaussianBlur stdDeviation="20"/>
<feComposite in2="hardAlpha" operator="out"/>
<feColorMatrix type="matrix" values="0 0 0 0 0.0367917 0 0 0 0 0.0348958 0 0 0 0 0.0484375 0 0 0 0.1 0"/>
<feBlend mode="normal" in2="BackgroundImageFix" result="effect1_dropShadow_25_413"/>
<feBlend mode="normal" in="SourceGraphic" in2="effect1_dropShadow_25_413" result="shape"/>
</filter>
</defs>
</svg>
