<svg width="261" height="261" viewBox="0 0 261 261" fill="none" xmlns="http://www.w3.org/2000/svg">
<g filter="url(#filter0_d_31_24)">
<rect x="40.3805" y="36.594" width="180" height="180" rx="32" fill="white"/>
<rect x="40.8805" y="37.094" width="179" height="179" rx="31.5" stroke="#D9D9D9"/>
</g>
<path fill-rule="evenodd" clip-rule="evenodd" d="M81.2572 112.377L101.579 84.791C101.787 84.5095 102.05 84.2741 102.354 84.0995C102.657 83.925 102.993 83.8151 103.341 83.7768L130.483 80.7596C130.668 80.7391 130.855 80.7391 131.041 80.7596L158.182 83.7737C158.53 83.812 158.866 83.9218 159.17 84.0964C159.473 84.2709 159.737 84.5063 159.945 84.7878L180.269 112.377C180.609 112.84 180.782 113.405 180.759 113.979C180.736 114.553 180.519 115.102 180.143 115.536L132.204 170.974C132.025 171.18 131.804 171.346 131.556 171.46C131.308 171.573 131.038 171.632 130.765 171.632C130.492 171.632 130.222 171.573 129.974 171.46C129.725 171.346 129.505 171.18 129.326 170.974L81.3777 115.536C81.0021 115.102 80.7854 114.552 80.7629 113.978C80.7405 113.404 80.9136 112.839 81.2541 112.377H81.2572ZM137.753 88.9143L156.918 107.017C157.104 107.193 157.338 107.309 157.591 107.349C157.844 107.389 158.102 107.352 158.334 107.242C158.565 107.132 158.757 106.955 158.886 106.734C159.014 106.513 159.073 106.258 159.054 106.003L158.135 93.1548C158.122 92.9976 158.168 92.8412 158.264 92.7163C158.361 92.5913 158.5 92.5067 158.655 92.479C158.811 92.4513 158.971 92.4824 159.104 92.5663C159.238 92.6503 159.335 92.781 159.377 92.9329L163.58 107.645C163.721 108.14 163.981 108.594 164.338 108.966C164.694 109.338 165.135 109.618 165.624 109.781L174.593 112.77C174.736 112.817 174.858 112.913 174.936 113.042C175.015 113.17 175.045 113.323 175.021 113.471C174.998 113.62 174.922 113.755 174.807 113.853C174.693 113.951 174.547 114.005 174.397 114.006H165.776C165.243 114.006 164.719 114.141 164.252 114.397C163.785 114.653 163.391 115.024 163.104 115.473L139.607 152.395C139.476 152.597 139.273 152.741 139.039 152.799C138.806 152.856 138.559 152.823 138.349 152.706C138.139 152.589 137.98 152.397 137.906 152.168C137.832 151.939 137.848 151.691 137.95 151.473L154.791 116.738C154.932 116.448 154.997 116.127 154.979 115.805C154.962 115.483 154.863 115.171 154.692 114.898C154.521 114.625 154.283 114.399 154.001 114.243C153.719 114.087 153.402 114.005 153.08 114.006H108.444C108.121 114.005 107.804 114.087 107.522 114.243C107.24 114.399 107.002 114.625 106.831 114.898C106.66 115.171 106.561 115.483 106.544 115.805C106.527 116.127 106.591 116.448 106.732 116.738L123.574 151.473C123.68 151.691 123.698 151.942 123.625 152.173C123.552 152.405 123.393 152.6 123.182 152.718C122.97 152.836 122.721 152.869 122.485 152.81C122.25 152.75 122.047 152.603 121.916 152.398L98.419 115.476C98.133 115.026 97.7379 114.655 97.2703 114.398C96.8027 114.141 96.2777 114.006 95.7441 114.006H86.8606C86.71 114.005 86.5644 113.951 86.4499 113.853C86.3355 113.755 86.2596 113.62 86.236 113.471C86.2123 113.323 86.2424 113.17 86.3209 113.042C86.3993 112.913 86.521 112.817 86.6641 112.77L95.8804 109.775C96.3743 109.614 96.8211 109.334 97.1814 108.96C97.5417 108.586 97.8046 108.129 97.9468 107.629L102.146 92.9329C102.188 92.781 102.286 92.6503 102.419 92.5663C102.553 92.4824 102.713 92.4513 102.868 92.479C103.023 92.5067 103.163 92.5913 103.259 92.7163C103.355 92.8412 103.401 92.9976 103.388 93.1548L102.469 106.003C102.45 106.258 102.509 106.513 102.638 106.734C102.766 106.955 102.959 107.132 103.19 107.242C103.421 107.352 103.68 107.389 103.933 107.349C104.185 107.309 104.42 107.193 104.605 107.017L123.77 88.9143C123.886 88.7973 124.043 88.73 124.207 88.7266C124.372 88.7231 124.531 88.7838 124.652 88.8957C124.772 89.0077 124.845 89.1622 124.854 89.3265C124.862 89.4908 124.807 89.6521 124.699 89.7763L111.841 105.601C111.69 105.787 111.595 106.011 111.567 106.249C111.538 106.487 111.578 106.727 111.681 106.944C111.783 107.16 111.945 107.342 112.148 107.47C112.35 107.598 112.584 107.667 112.823 107.667H148.7C148.939 107.667 149.174 107.598 149.376 107.47C149.578 107.342 149.74 107.16 149.843 106.944C149.946 106.727 149.985 106.487 149.957 106.249C149.928 106.011 149.833 105.787 149.682 105.601L136.825 89.7763C136.717 89.6521 136.661 89.4908 136.67 89.3265C136.679 89.1622 136.751 89.0077 136.872 88.8957C136.992 88.7838 137.152 88.7231 137.316 88.7266C137.481 88.73 137.637 88.7973 137.753 88.9143Z" fill="black"/>
<defs>
<filter id="filter0_d_31_24" x="0.380493" y="0.593994" width="260" height="260" filterUnits="userSpaceOnUse" color-interpolation-filters="sRGB">
<feFlood flood-opacity="0" result="BackgroundImageFix"/>
<feColorMatrix in="SourceAlpha" type="matrix" values="0 0 0 0 0 0 0 0 0 0 0 0 0 0 0 0 0 0 127 0" result="hardAlpha"/>
<feOffset dy="4"/>
<feGaussianBlur stdDeviation="20"/>
<feComposite in2="hardAlpha" operator="out"/>
<feColorMatrix type="matrix" values="0 0 0 0 0.0367917 0 0 0 0 0.0348958 0 0 0 0 0.0484375 0 0 0 0.1 0"/>
<feBlend mode="normal" in2="BackgroundImageFix" result="effect1_dropShadow_31_24"/>
<feBlend mode="normal" in="SourceGraphic" in2="effect1_dropShadow_31_24" result="shape"/>
</filter>
</defs>
</svg>
