<svg width="261" height="260" viewBox="0 0 261 260" fill="none" xmlns="http://www.w3.org/2000/svg">
<g filter="url(#filter0_d_25_404)">
<rect x="40.9329" y="36" width="180" height="180" rx="32" fill="white"/>
<rect x="41.4329" y="36.5" width="179" height="179" rx="31.5" stroke="#D9D9D9"/>
</g>
<path d="M102.703 75.5942H158.072C160.766 75.5942 163.382 76.0239 165.92 76.9224C169.591 78.2505 172.91 80.5942 175.409 83.6411C177.947 86.688 179.626 90.438 180.212 94.3442C180.446 95.7896 180.485 97.2349 180.485 98.6802V152.704C180.485 154.422 180.407 156.18 180.056 157.86C179.275 161.727 177.439 165.36 174.784 168.29C172.168 171.219 168.732 173.407 165.022 174.579C162.758 175.282 160.415 175.594 158.033 175.594C156.979 175.594 102.547 175.594 101.727 175.555C97.7439 175.36 93.8002 174.071 90.4811 171.844C87.2402 169.657 84.585 166.61 82.8669 163.094C81.3831 160.086 80.6412 156.727 80.6412 153.368V97.8208C80.5631 94.5005 81.266 91.2192 82.7107 88.2505C84.3898 84.7349 87.0059 81.6489 90.2469 79.4614C93.5659 77.1958 97.4706 75.8677 101.453 75.6724C101.844 75.5942 102.273 75.5942 102.703 75.5942Z" fill="url(#paint0_linear_25_404)"/>
<path d="M164.827 157.391C164.476 156.844 164.085 156.297 163.656 155.79C162.679 154.618 161.547 153.602 160.297 152.743C158.736 151.688 156.9 151.024 155.026 150.946C153.698 150.868 152.371 151.102 151.121 151.571C149.872 152 148.661 152.625 147.49 153.25C146.123 153.954 144.757 154.657 143.312 155.243C141.594 155.946 139.798 156.493 137.962 156.883C135.659 157.313 133.316 157.469 131.012 157.43C126.834 157.352 122.656 156.727 118.673 155.555C115.159 154.5 111.801 153.055 108.638 151.219C105.866 149.618 103.289 147.782 100.868 145.711C98.8762 143.993 97.041 142.157 95.3229 140.204C94.1515 138.836 93.0191 137.391 91.9649 135.907C91.5353 135.321 91.1449 134.696 90.7934 134.071L80.485 122.938V97.7427C80.485 85.5161 90.3639 75.5942 102.586 75.5942H122.305L136.908 90.438C169.864 112.86 159.204 137.586 159.204 137.586C159.204 137.586 168.575 148.133 164.827 157.391Z" fill="url(#paint1_linear_25_404)"/>
<path d="M136.986 90.438C169.942 112.86 159.282 137.586 159.282 137.586C159.282 137.586 168.653 148.172 164.866 157.43C164.866 157.43 161 150.946 154.518 150.946C148.271 150.946 144.6 157.43 132.027 157.43C104.03 157.43 90.7935 134.032 90.7935 134.032C116.018 150.633 133.238 138.875 133.238 138.875C121.875 132.274 97.7048 100.711 97.7048 100.711C118.751 118.641 127.849 123.368 127.849 123.368C122.422 118.875 107.193 96.9224 107.193 96.9224C119.376 109.266 143.585 126.493 143.585 126.493C150.457 107.43 136.986 90.438 136.986 90.438Z" fill="white"/>
<defs>
<filter id="filter0_d_25_404" x="0.932861" y="0" width="260" height="260" filterUnits="userSpaceOnUse" color-interpolation-filters="sRGB">
<feFlood flood-opacity="0" result="BackgroundImageFix"/>
<feColorMatrix in="SourceAlpha" type="matrix" values="0 0 0 0 0 0 0 0 0 0 0 0 0 0 0 0 0 0 127 0" result="hardAlpha"/>
<feOffset dy="4"/>
<feGaussianBlur stdDeviation="20"/>
<feComposite in2="hardAlpha" operator="out"/>
<feColorMatrix type="matrix" values="0 0 0 0 0.0367917 0 0 0 0 0.0348958 0 0 0 0 0.0484375 0 0 0 0.1 0"/>
<feBlend mode="normal" in2="BackgroundImageFix" result="effect1_dropShadow_25_404"/>
<feBlend mode="normal" in="SourceGraphic" in2="effect1_dropShadow_25_404" result="shape"/>
</filter>
<linearGradient id="paint0_linear_25_404" x1="139.95" y1="72.0259" x2="121.05" y2="179.172" gradientUnits="userSpaceOnUse">
<stop stop-color="#FAAE42"/>
<stop offset="1" stop-color="#EF3E31"/>
</linearGradient>
<linearGradient id="paint1_linear_25_404" x1="131.485" y1="77.2099" x2="117.652" y2="155.629" gradientUnits="userSpaceOnUse">
<stop stop-color="#E39F3A"/>
<stop offset="1" stop-color="#D33929"/>
</linearGradient>
</defs>
</svg>
